%TF.GenerationSoftware,KiCad,Pcbnew,(5.1.6)-1*%
%TF.CreationDate,2021-04-26T08:49:06+02:00*%
%TF.ProjectId,GameboyPi,47616d65-626f-4795-9069-2e6b69636164,rev?*%
%TF.SameCoordinates,Original*%
%TF.FileFunction,Soldermask,Top*%
%TF.FilePolarity,Negative*%
%FSLAX46Y46*%
G04 Gerber Fmt 4.6, Leading zero omitted, Abs format (unit mm)*
G04 Created by KiCad (PCBNEW (5.1.6)-1) date 2021-04-26 08:49:06*
%MOMM*%
%LPD*%
G01*
G04 APERTURE LIST*
%ADD10R,2.100000X3.100000*%
%ADD11C,1.700000*%
%ADD12R,1.700000X1.600000*%
%ADD13C,3.100000*%
%ADD14C,0.600000*%
%ADD15R,2.720000X3.610000*%
%ADD16C,1.600000*%
%ADD17R,1.624000X1.624000*%
%ADD18C,1.624000*%
%ADD19R,5.600000X4.600000*%
%ADD20R,1.160000X0.750000*%
%ADD21R,1.320000X0.750000*%
%ADD22R,1.100000X0.900000*%
%ADD23R,0.800000X1.600000*%
%ADD24C,1.000000*%
%ADD25R,1.100000X2.000000*%
%ADD26R,1.900000X2.000000*%
%ADD27R,1.750000X1.400000*%
%ADD28R,1.525000X1.650000*%
%ADD29R,0.550000X1.480000*%
%ADD30R,4.700000X4.700000*%
%ADD31C,2.500000*%
%ADD32R,1.000000X0.900000*%
G04 APERTURE END LIST*
D10*
%TO.C,J10*%
X137450000Y-71400000D03*
%TD*%
%TO.C,J9*%
X134450000Y-71400000D03*
%TD*%
D11*
%TO.C,J8*%
X164800000Y-77741000D03*
X167300000Y-77741000D03*
X169300000Y-77741000D03*
D12*
X171800000Y-77741000D03*
D13*
X161730000Y-75031000D03*
X174870000Y-75031000D03*
%TD*%
%TO.C,C16*%
G36*
G01*
X172552500Y-81457500D02*
X172552500Y-82767500D01*
G75*
G02*
X172282500Y-83037500I-270000J0D01*
G01*
X171472500Y-83037500D01*
G75*
G02*
X171202500Y-82767500I0J270000D01*
G01*
X171202500Y-81457500D01*
G75*
G02*
X171472500Y-81187500I270000J0D01*
G01*
X172282500Y-81187500D01*
G75*
G02*
X172552500Y-81457500I0J-270000D01*
G01*
G37*
G36*
G01*
X175352500Y-81457500D02*
X175352500Y-82767500D01*
G75*
G02*
X175082500Y-83037500I-270000J0D01*
G01*
X174272500Y-83037500D01*
G75*
G02*
X174002500Y-82767500I0J270000D01*
G01*
X174002500Y-81457500D01*
G75*
G02*
X174272500Y-81187500I270000J0D01*
G01*
X175082500Y-81187500D01*
G75*
G02*
X175352500Y-81457500I0J-270000D01*
G01*
G37*
%TD*%
D10*
%TO.C,J6*%
X140450000Y-71400000D03*
%TD*%
D14*
%TO.C,U4*%
X79860000Y-119530000D03*
X79860000Y-120780000D03*
X79860000Y-122030000D03*
X78360000Y-122030000D03*
X78360000Y-120780000D03*
X78360000Y-119530000D03*
D15*
X79110000Y-120780000D03*
G36*
G01*
X80960000Y-121571500D02*
X80960000Y-121216500D01*
G75*
G02*
X81137500Y-121039000I177500J0D01*
G01*
X82482500Y-121039000D01*
G75*
G02*
X82660000Y-121216500I0J-177500D01*
G01*
X82660000Y-121571500D01*
G75*
G02*
X82482500Y-121749000I-177500J0D01*
G01*
X81137500Y-121749000D01*
G75*
G02*
X80960000Y-121571500I0J177500D01*
G01*
G37*
G36*
G01*
X80960000Y-122841500D02*
X80960000Y-122486500D01*
G75*
G02*
X81137500Y-122309000I177500J0D01*
G01*
X82482500Y-122309000D01*
G75*
G02*
X82660000Y-122486500I0J-177500D01*
G01*
X82660000Y-122841500D01*
G75*
G02*
X82482500Y-123019000I-177500J0D01*
G01*
X81137500Y-123019000D01*
G75*
G02*
X80960000Y-122841500I0J177500D01*
G01*
G37*
G36*
G01*
X80960000Y-119031500D02*
X80960000Y-118676500D01*
G75*
G02*
X81137500Y-118499000I177500J0D01*
G01*
X82482500Y-118499000D01*
G75*
G02*
X82660000Y-118676500I0J-177500D01*
G01*
X82660000Y-119031500D01*
G75*
G02*
X82482500Y-119209000I-177500J0D01*
G01*
X81137500Y-119209000D01*
G75*
G02*
X80960000Y-119031500I0J177500D01*
G01*
G37*
G36*
G01*
X80960000Y-120301500D02*
X80960000Y-119946500D01*
G75*
G02*
X81137500Y-119769000I177500J0D01*
G01*
X82482500Y-119769000D01*
G75*
G02*
X82660000Y-119946500I0J-177500D01*
G01*
X82660000Y-120301500D01*
G75*
G02*
X82482500Y-120479000I-177500J0D01*
G01*
X81137500Y-120479000D01*
G75*
G02*
X80960000Y-120301500I0J177500D01*
G01*
G37*
G36*
G01*
X75560000Y-122841500D02*
X75560000Y-122486500D01*
G75*
G02*
X75737500Y-122309000I177500J0D01*
G01*
X77082500Y-122309000D01*
G75*
G02*
X77260000Y-122486500I0J-177500D01*
G01*
X77260000Y-122841500D01*
G75*
G02*
X77082500Y-123019000I-177500J0D01*
G01*
X75737500Y-123019000D01*
G75*
G02*
X75560000Y-122841500I0J177500D01*
G01*
G37*
G36*
G01*
X75560000Y-121571500D02*
X75560000Y-121216500D01*
G75*
G02*
X75737500Y-121039000I177500J0D01*
G01*
X77082500Y-121039000D01*
G75*
G02*
X77260000Y-121216500I0J-177500D01*
G01*
X77260000Y-121571500D01*
G75*
G02*
X77082500Y-121749000I-177500J0D01*
G01*
X75737500Y-121749000D01*
G75*
G02*
X75560000Y-121571500I0J177500D01*
G01*
G37*
G36*
G01*
X75560000Y-120301500D02*
X75560000Y-119946500D01*
G75*
G02*
X75737500Y-119769000I177500J0D01*
G01*
X77082500Y-119769000D01*
G75*
G02*
X77260000Y-119946500I0J-177500D01*
G01*
X77260000Y-120301500D01*
G75*
G02*
X77082500Y-120479000I-177500J0D01*
G01*
X75737500Y-120479000D01*
G75*
G02*
X75560000Y-120301500I0J177500D01*
G01*
G37*
G36*
G01*
X75560000Y-119031500D02*
X75560000Y-118676500D01*
G75*
G02*
X75737500Y-118499000I177500J0D01*
G01*
X77082500Y-118499000D01*
G75*
G02*
X77260000Y-118676500I0J-177500D01*
G01*
X77260000Y-119031500D01*
G75*
G02*
X77082500Y-119209000I-177500J0D01*
G01*
X75737500Y-119209000D01*
G75*
G02*
X75560000Y-119031500I0J177500D01*
G01*
G37*
%TD*%
D10*
%TO.C,J7*%
X143450000Y-71400000D03*
%TD*%
D16*
%TO.C,U1*%
X156400000Y-114760000D03*
X158300000Y-114760000D03*
D17*
X124570001Y-91530000D03*
D18*
X124570001Y-88990000D03*
X127110001Y-91530000D03*
X127110001Y-88990000D03*
X129650001Y-91530000D03*
X129650001Y-88990000D03*
X132190001Y-91530000D03*
X132190001Y-88990000D03*
X134730001Y-91530000D03*
X134730001Y-88990000D03*
X137270001Y-91530000D03*
X137270001Y-88990000D03*
X139810001Y-91530000D03*
X139810001Y-88990000D03*
X142350001Y-91530000D03*
X142350001Y-88990000D03*
X144890001Y-91530000D03*
X144890001Y-88990000D03*
X147430001Y-91530000D03*
X147430001Y-88990000D03*
X149970001Y-91530000D03*
X149970001Y-88990000D03*
X152510001Y-91530000D03*
X152510001Y-88990000D03*
X155050001Y-91530000D03*
X155050001Y-88990000D03*
X157590001Y-91530000D03*
X157590001Y-88990000D03*
X160130001Y-91530000D03*
X160130001Y-88990000D03*
X162670001Y-91530000D03*
X162670001Y-88990000D03*
X165210001Y-91530000D03*
X165210001Y-88990000D03*
X167750001Y-91530000D03*
X167750001Y-88990000D03*
X170290001Y-91530000D03*
X170290001Y-88990000D03*
X172830001Y-91530000D03*
X172830001Y-88990000D03*
%TD*%
D19*
%TO.C,BT1*%
X82030000Y-109460000D03*
X82030000Y-90460000D03*
%TD*%
%TO.C,L1*%
G36*
G01*
X100255000Y-124135000D02*
X103265000Y-124135000D01*
G75*
G02*
X103510000Y-124380000I0J-245000D01*
G01*
X103510000Y-126340000D01*
G75*
G02*
X103265000Y-126585000I-245000J0D01*
G01*
X100255000Y-126585000D01*
G75*
G02*
X100010000Y-126340000I0J245000D01*
G01*
X100010000Y-124380000D01*
G75*
G02*
X100255000Y-124135000I245000J0D01*
G01*
G37*
G36*
G01*
X100255000Y-118085000D02*
X103265000Y-118085000D01*
G75*
G02*
X103510000Y-118330000I0J-245000D01*
G01*
X103510000Y-120290000D01*
G75*
G02*
X103265000Y-120535000I-245000J0D01*
G01*
X100255000Y-120535000D01*
G75*
G02*
X100010000Y-120290000I0J245000D01*
G01*
X100010000Y-118330000D01*
G75*
G02*
X100255000Y-118085000I245000J0D01*
G01*
G37*
%TD*%
D20*
%TO.C,M3*%
X142930000Y-126240000D03*
X142930000Y-125290000D03*
X142930000Y-127190000D03*
X140730000Y-127190000D03*
X140730000Y-126240000D03*
X140730000Y-125290000D03*
%TD*%
%TO.C,M2*%
X122147500Y-75375000D03*
X122147500Y-74425000D03*
X122147500Y-76325000D03*
X119947500Y-76325000D03*
X119947500Y-75375000D03*
X119947500Y-74425000D03*
%TD*%
D21*
%TO.C,M1*%
X80250000Y-114990000D03*
X80250000Y-115940000D03*
X80250000Y-116890000D03*
X77630000Y-116890000D03*
X77630000Y-115940000D03*
X77630000Y-114990000D03*
%TD*%
%TO.C,R5*%
G36*
G01*
X84601250Y-120772500D02*
X84038750Y-120772500D01*
G75*
G02*
X83795000Y-120528750I0J243750D01*
G01*
X83795000Y-120041250D01*
G75*
G02*
X84038750Y-119797500I243750J0D01*
G01*
X84601250Y-119797500D01*
G75*
G02*
X84845000Y-120041250I0J-243750D01*
G01*
X84845000Y-120528750D01*
G75*
G02*
X84601250Y-120772500I-243750J0D01*
G01*
G37*
G36*
G01*
X84601250Y-122347500D02*
X84038750Y-122347500D01*
G75*
G02*
X83795000Y-122103750I0J243750D01*
G01*
X83795000Y-121616250D01*
G75*
G02*
X84038750Y-121372500I243750J0D01*
G01*
X84601250Y-121372500D01*
G75*
G02*
X84845000Y-121616250I0J-243750D01*
G01*
X84845000Y-122103750D01*
G75*
G02*
X84601250Y-122347500I-243750J0D01*
G01*
G37*
%TD*%
%TO.C,C15*%
G36*
G01*
X129990000Y-76840000D02*
X129990000Y-75530000D01*
G75*
G02*
X130260000Y-75260000I270000J0D01*
G01*
X131070000Y-75260000D01*
G75*
G02*
X131340000Y-75530000I0J-270000D01*
G01*
X131340000Y-76840000D01*
G75*
G02*
X131070000Y-77110000I-270000J0D01*
G01*
X130260000Y-77110000D01*
G75*
G02*
X129990000Y-76840000I0J270000D01*
G01*
G37*
G36*
G01*
X127190000Y-76840000D02*
X127190000Y-75530000D01*
G75*
G02*
X127460000Y-75260000I270000J0D01*
G01*
X128270000Y-75260000D01*
G75*
G02*
X128540000Y-75530000I0J-270000D01*
G01*
X128540000Y-76840000D01*
G75*
G02*
X128270000Y-77110000I-270000J0D01*
G01*
X127460000Y-77110000D01*
G75*
G02*
X127190000Y-76840000I0J270000D01*
G01*
G37*
%TD*%
%TO.C,C14*%
G36*
G01*
X124758750Y-75740000D02*
X124196250Y-75740000D01*
G75*
G02*
X123952500Y-75496250I0J243750D01*
G01*
X123952500Y-75008750D01*
G75*
G02*
X124196250Y-74765000I243750J0D01*
G01*
X124758750Y-74765000D01*
G75*
G02*
X125002500Y-75008750I0J-243750D01*
G01*
X125002500Y-75496250D01*
G75*
G02*
X124758750Y-75740000I-243750J0D01*
G01*
G37*
G36*
G01*
X124758750Y-77315000D02*
X124196250Y-77315000D01*
G75*
G02*
X123952500Y-77071250I0J243750D01*
G01*
X123952500Y-76583750D01*
G75*
G02*
X124196250Y-76340000I243750J0D01*
G01*
X124758750Y-76340000D01*
G75*
G02*
X125002500Y-76583750I0J-243750D01*
G01*
X125002500Y-77071250D01*
G75*
G02*
X124758750Y-77315000I-243750J0D01*
G01*
G37*
%TD*%
%TO.C,C13*%
G36*
G01*
X109862500Y-109453750D02*
X109862500Y-110016250D01*
G75*
G02*
X109618750Y-110260000I-243750J0D01*
G01*
X109131250Y-110260000D01*
G75*
G02*
X108887500Y-110016250I0J243750D01*
G01*
X108887500Y-109453750D01*
G75*
G02*
X109131250Y-109210000I243750J0D01*
G01*
X109618750Y-109210000D01*
G75*
G02*
X109862500Y-109453750I0J-243750D01*
G01*
G37*
G36*
G01*
X111437500Y-109453750D02*
X111437500Y-110016250D01*
G75*
G02*
X111193750Y-110260000I-243750J0D01*
G01*
X110706250Y-110260000D01*
G75*
G02*
X110462500Y-110016250I0J243750D01*
G01*
X110462500Y-109453750D01*
G75*
G02*
X110706250Y-109210000I243750J0D01*
G01*
X111193750Y-109210000D01*
G75*
G02*
X111437500Y-109453750I0J-243750D01*
G01*
G37*
%TD*%
%TO.C,C12*%
G36*
G01*
X81065000Y-124006250D02*
X81065000Y-124568750D01*
G75*
G02*
X80821250Y-124812500I-243750J0D01*
G01*
X80333750Y-124812500D01*
G75*
G02*
X80090000Y-124568750I0J243750D01*
G01*
X80090000Y-124006250D01*
G75*
G02*
X80333750Y-123762500I243750J0D01*
G01*
X80821250Y-123762500D01*
G75*
G02*
X81065000Y-124006250I0J-243750D01*
G01*
G37*
G36*
G01*
X82640000Y-124006250D02*
X82640000Y-124568750D01*
G75*
G02*
X82396250Y-124812500I-243750J0D01*
G01*
X81908750Y-124812500D01*
G75*
G02*
X81665000Y-124568750I0J243750D01*
G01*
X81665000Y-124006250D01*
G75*
G02*
X81908750Y-123762500I243750J0D01*
G01*
X82396250Y-123762500D01*
G75*
G02*
X82640000Y-124006250I0J-243750D01*
G01*
G37*
%TD*%
%TO.C,R4*%
G36*
G01*
X110435000Y-112013750D02*
X110435000Y-111451250D01*
G75*
G02*
X110678750Y-111207500I243750J0D01*
G01*
X111166250Y-111207500D01*
G75*
G02*
X111410000Y-111451250I0J-243750D01*
G01*
X111410000Y-112013750D01*
G75*
G02*
X111166250Y-112257500I-243750J0D01*
G01*
X110678750Y-112257500D01*
G75*
G02*
X110435000Y-112013750I0J243750D01*
G01*
G37*
G36*
G01*
X108860000Y-112013750D02*
X108860000Y-111451250D01*
G75*
G02*
X109103750Y-111207500I243750J0D01*
G01*
X109591250Y-111207500D01*
G75*
G02*
X109835000Y-111451250I0J-243750D01*
G01*
X109835000Y-112013750D01*
G75*
G02*
X109591250Y-112257500I-243750J0D01*
G01*
X109103750Y-112257500D01*
G75*
G02*
X108860000Y-112013750I0J243750D01*
G01*
G37*
%TD*%
%TO.C,C8*%
G36*
G01*
X91430000Y-122253750D02*
X91430000Y-122816250D01*
G75*
G02*
X91186250Y-123060000I-243750J0D01*
G01*
X90698750Y-123060000D01*
G75*
G02*
X90455000Y-122816250I0J243750D01*
G01*
X90455000Y-122253750D01*
G75*
G02*
X90698750Y-122010000I243750J0D01*
G01*
X91186250Y-122010000D01*
G75*
G02*
X91430000Y-122253750I0J-243750D01*
G01*
G37*
G36*
G01*
X93005000Y-122253750D02*
X93005000Y-122816250D01*
G75*
G02*
X92761250Y-123060000I-243750J0D01*
G01*
X92273750Y-123060000D01*
G75*
G02*
X92030000Y-122816250I0J243750D01*
G01*
X92030000Y-122253750D01*
G75*
G02*
X92273750Y-122010000I243750J0D01*
G01*
X92761250Y-122010000D01*
G75*
G02*
X93005000Y-122253750I0J-243750D01*
G01*
G37*
%TD*%
%TO.C,C7*%
G36*
G01*
X91440000Y-124003750D02*
X91440000Y-124566250D01*
G75*
G02*
X91196250Y-124810000I-243750J0D01*
G01*
X90708750Y-124810000D01*
G75*
G02*
X90465000Y-124566250I0J243750D01*
G01*
X90465000Y-124003750D01*
G75*
G02*
X90708750Y-123760000I243750J0D01*
G01*
X91196250Y-123760000D01*
G75*
G02*
X91440000Y-124003750I0J-243750D01*
G01*
G37*
G36*
G01*
X93015000Y-124003750D02*
X93015000Y-124566250D01*
G75*
G02*
X92771250Y-124810000I-243750J0D01*
G01*
X92283750Y-124810000D01*
G75*
G02*
X92040000Y-124566250I0J243750D01*
G01*
X92040000Y-124003750D01*
G75*
G02*
X92283750Y-123760000I243750J0D01*
G01*
X92771250Y-123760000D01*
G75*
G02*
X93015000Y-124003750I0J-243750D01*
G01*
G37*
%TD*%
%TO.C,R3*%
G36*
G01*
X90207500Y-119780000D02*
X90207500Y-121090000D01*
G75*
G02*
X89937500Y-121360000I-270000J0D01*
G01*
X89127500Y-121360000D01*
G75*
G02*
X88857500Y-121090000I0J270000D01*
G01*
X88857500Y-119780000D01*
G75*
G02*
X89127500Y-119510000I270000J0D01*
G01*
X89937500Y-119510000D01*
G75*
G02*
X90207500Y-119780000I0J-270000D01*
G01*
G37*
G36*
G01*
X93007500Y-119780000D02*
X93007500Y-121090000D01*
G75*
G02*
X92737500Y-121360000I-270000J0D01*
G01*
X91927500Y-121360000D01*
G75*
G02*
X91657500Y-121090000I0J270000D01*
G01*
X91657500Y-119780000D01*
G75*
G02*
X91927500Y-119510000I270000J0D01*
G01*
X92737500Y-119510000D01*
G75*
G02*
X93007500Y-119780000I0J-270000D01*
G01*
G37*
%TD*%
%TO.C,C11*%
G36*
G01*
X106025000Y-117088750D02*
X106025000Y-116526250D01*
G75*
G02*
X106268750Y-116282500I243750J0D01*
G01*
X106756250Y-116282500D01*
G75*
G02*
X107000000Y-116526250I0J-243750D01*
G01*
X107000000Y-117088750D01*
G75*
G02*
X106756250Y-117332500I-243750J0D01*
G01*
X106268750Y-117332500D01*
G75*
G02*
X106025000Y-117088750I0J243750D01*
G01*
G37*
G36*
G01*
X104450000Y-117088750D02*
X104450000Y-116526250D01*
G75*
G02*
X104693750Y-116282500I243750J0D01*
G01*
X105181250Y-116282500D01*
G75*
G02*
X105425000Y-116526250I0J-243750D01*
G01*
X105425000Y-117088750D01*
G75*
G02*
X105181250Y-117332500I-243750J0D01*
G01*
X104693750Y-117332500D01*
G75*
G02*
X104450000Y-117088750I0J243750D01*
G01*
G37*
%TD*%
%TO.C,C10*%
G36*
G01*
X101825000Y-116498750D02*
X101825000Y-117061250D01*
G75*
G02*
X101581250Y-117305000I-243750J0D01*
G01*
X101093750Y-117305000D01*
G75*
G02*
X100850000Y-117061250I0J243750D01*
G01*
X100850000Y-116498750D01*
G75*
G02*
X101093750Y-116255000I243750J0D01*
G01*
X101581250Y-116255000D01*
G75*
G02*
X101825000Y-116498750I0J-243750D01*
G01*
G37*
G36*
G01*
X103400000Y-116498750D02*
X103400000Y-117061250D01*
G75*
G02*
X103156250Y-117305000I-243750J0D01*
G01*
X102668750Y-117305000D01*
G75*
G02*
X102425000Y-117061250I0J243750D01*
G01*
X102425000Y-116498750D01*
G75*
G02*
X102668750Y-116255000I243750J0D01*
G01*
X103156250Y-116255000D01*
G75*
G02*
X103400000Y-116498750I0J-243750D01*
G01*
G37*
%TD*%
%TO.C,C9*%
G36*
G01*
X107198750Y-121480000D02*
X108161250Y-121480000D01*
G75*
G02*
X108430000Y-121748750I0J-268750D01*
G01*
X108430000Y-122286250D01*
G75*
G02*
X108161250Y-122555000I-268750J0D01*
G01*
X107198750Y-122555000D01*
G75*
G02*
X106930000Y-122286250I0J268750D01*
G01*
X106930000Y-121748750D01*
G75*
G02*
X107198750Y-121480000I268750J0D01*
G01*
G37*
G36*
G01*
X107198750Y-119605000D02*
X108161250Y-119605000D01*
G75*
G02*
X108430000Y-119873750I0J-268750D01*
G01*
X108430000Y-120411250D01*
G75*
G02*
X108161250Y-120680000I-268750J0D01*
G01*
X107198750Y-120680000D01*
G75*
G02*
X106930000Y-120411250I0J268750D01*
G01*
X106930000Y-119873750D01*
G75*
G02*
X107198750Y-119605000I268750J0D01*
G01*
G37*
%TD*%
%TO.C,C6*%
G36*
G01*
X86401250Y-121690000D02*
X87363750Y-121690000D01*
G75*
G02*
X87632500Y-121958750I0J-268750D01*
G01*
X87632500Y-122496250D01*
G75*
G02*
X87363750Y-122765000I-268750J0D01*
G01*
X86401250Y-122765000D01*
G75*
G02*
X86132500Y-122496250I0J268750D01*
G01*
X86132500Y-121958750D01*
G75*
G02*
X86401250Y-121690000I268750J0D01*
G01*
G37*
G36*
G01*
X86401250Y-119815000D02*
X87363750Y-119815000D01*
G75*
G02*
X87632500Y-120083750I0J-268750D01*
G01*
X87632500Y-120621250D01*
G75*
G02*
X87363750Y-120890000I-268750J0D01*
G01*
X86401250Y-120890000D01*
G75*
G02*
X86132500Y-120621250I0J268750D01*
G01*
X86132500Y-120083750D01*
G75*
G02*
X86401250Y-119815000I268750J0D01*
G01*
G37*
%TD*%
%TO.C,D4*%
G36*
G01*
X72400000Y-88831250D02*
X72400000Y-87868750D01*
G75*
G02*
X72668750Y-87600000I268750J0D01*
G01*
X73206250Y-87600000D01*
G75*
G02*
X73475000Y-87868750I0J-268750D01*
G01*
X73475000Y-88831250D01*
G75*
G02*
X73206250Y-89100000I-268750J0D01*
G01*
X72668750Y-89100000D01*
G75*
G02*
X72400000Y-88831250I0J268750D01*
G01*
G37*
G36*
G01*
X70525000Y-88831250D02*
X70525000Y-87868750D01*
G75*
G02*
X70793750Y-87600000I268750J0D01*
G01*
X71331250Y-87600000D01*
G75*
G02*
X71600000Y-87868750I0J-268750D01*
G01*
X71600000Y-88831250D01*
G75*
G02*
X71331250Y-89100000I-268750J0D01*
G01*
X70793750Y-89100000D01*
G75*
G02*
X70525000Y-88831250I0J268750D01*
G01*
G37*
%TD*%
%TO.C,D3*%
G36*
G01*
X70892500Y-91338750D02*
X70892500Y-92301250D01*
G75*
G02*
X70623750Y-92570000I-268750J0D01*
G01*
X70086250Y-92570000D01*
G75*
G02*
X69817500Y-92301250I0J268750D01*
G01*
X69817500Y-91338750D01*
G75*
G02*
X70086250Y-91070000I268750J0D01*
G01*
X70623750Y-91070000D01*
G75*
G02*
X70892500Y-91338750I0J-268750D01*
G01*
G37*
G36*
G01*
X72767500Y-91338750D02*
X72767500Y-92301250D01*
G75*
G02*
X72498750Y-92570000I-268750J0D01*
G01*
X71961250Y-92570000D01*
G75*
G02*
X71692500Y-92301250I0J268750D01*
G01*
X71692500Y-91338750D01*
G75*
G02*
X71961250Y-91070000I268750J0D01*
G01*
X72498750Y-91070000D01*
G75*
G02*
X72767500Y-91338750I0J-268750D01*
G01*
G37*
%TD*%
%TO.C,D2*%
G36*
G01*
X71460000Y-95971250D02*
X71460000Y-95008750D01*
G75*
G02*
X71728750Y-94740000I268750J0D01*
G01*
X72266250Y-94740000D01*
G75*
G02*
X72535000Y-95008750I0J-268750D01*
G01*
X72535000Y-95971250D01*
G75*
G02*
X72266250Y-96240000I-268750J0D01*
G01*
X71728750Y-96240000D01*
G75*
G02*
X71460000Y-95971250I0J268750D01*
G01*
G37*
G36*
G01*
X69585000Y-95971250D02*
X69585000Y-95008750D01*
G75*
G02*
X69853750Y-94740000I268750J0D01*
G01*
X70391250Y-94740000D01*
G75*
G02*
X70660000Y-95008750I0J-268750D01*
G01*
X70660000Y-95971250D01*
G75*
G02*
X70391250Y-96240000I-268750J0D01*
G01*
X69853750Y-96240000D01*
G75*
G02*
X69585000Y-95971250I0J268750D01*
G01*
G37*
%TD*%
%TO.C,D1*%
G36*
G01*
X70522500Y-98408750D02*
X70522500Y-99371250D01*
G75*
G02*
X70253750Y-99640000I-268750J0D01*
G01*
X69716250Y-99640000D01*
G75*
G02*
X69447500Y-99371250I0J268750D01*
G01*
X69447500Y-98408750D01*
G75*
G02*
X69716250Y-98140000I268750J0D01*
G01*
X70253750Y-98140000D01*
G75*
G02*
X70522500Y-98408750I0J-268750D01*
G01*
G37*
G36*
G01*
X72397500Y-98408750D02*
X72397500Y-99371250D01*
G75*
G02*
X72128750Y-99640000I-268750J0D01*
G01*
X71591250Y-99640000D01*
G75*
G02*
X71322500Y-99371250I0J268750D01*
G01*
X71322500Y-98408750D01*
G75*
G02*
X71591250Y-98140000I268750J0D01*
G01*
X72128750Y-98140000D01*
G75*
G02*
X72397500Y-98408750I0J-268750D01*
G01*
G37*
%TD*%
D22*
%TO.C,SW12*%
X129165000Y-71007500D03*
X121865000Y-71007500D03*
X121865000Y-68797500D03*
X129165000Y-68797500D03*
D23*
X123265000Y-71657500D03*
X124765000Y-71657500D03*
X127765000Y-71657500D03*
D24*
X124015000Y-69897500D03*
X127015000Y-69897500D03*
%TD*%
%TO.C,C5*%
G36*
G01*
X104761250Y-104675000D02*
X103798750Y-104675000D01*
G75*
G02*
X103530000Y-104406250I0J268750D01*
G01*
X103530000Y-103868750D01*
G75*
G02*
X103798750Y-103600000I268750J0D01*
G01*
X104761250Y-103600000D01*
G75*
G02*
X105030000Y-103868750I0J-268750D01*
G01*
X105030000Y-104406250D01*
G75*
G02*
X104761250Y-104675000I-268750J0D01*
G01*
G37*
G36*
G01*
X104761250Y-106550000D02*
X103798750Y-106550000D01*
G75*
G02*
X103530000Y-106281250I0J268750D01*
G01*
X103530000Y-105743750D01*
G75*
G02*
X103798750Y-105475000I268750J0D01*
G01*
X104761250Y-105475000D01*
G75*
G02*
X105030000Y-105743750I0J-268750D01*
G01*
X105030000Y-106281250D01*
G75*
G02*
X104761250Y-106550000I-268750J0D01*
G01*
G37*
%TD*%
%TO.C,C4*%
G36*
G01*
X102621250Y-104667500D02*
X101658750Y-104667500D01*
G75*
G02*
X101390000Y-104398750I0J268750D01*
G01*
X101390000Y-103861250D01*
G75*
G02*
X101658750Y-103592500I268750J0D01*
G01*
X102621250Y-103592500D01*
G75*
G02*
X102890000Y-103861250I0J-268750D01*
G01*
X102890000Y-104398750D01*
G75*
G02*
X102621250Y-104667500I-268750J0D01*
G01*
G37*
G36*
G01*
X102621250Y-106542500D02*
X101658750Y-106542500D01*
G75*
G02*
X101390000Y-106273750I0J268750D01*
G01*
X101390000Y-105736250D01*
G75*
G02*
X101658750Y-105467500I268750J0D01*
G01*
X102621250Y-105467500D01*
G75*
G02*
X102890000Y-105736250I0J-268750D01*
G01*
X102890000Y-106273750D01*
G75*
G02*
X102621250Y-106542500I-268750J0D01*
G01*
G37*
%TD*%
%TO.C,C3*%
G36*
G01*
X100451250Y-104667500D02*
X99488750Y-104667500D01*
G75*
G02*
X99220000Y-104398750I0J268750D01*
G01*
X99220000Y-103861250D01*
G75*
G02*
X99488750Y-103592500I268750J0D01*
G01*
X100451250Y-103592500D01*
G75*
G02*
X100720000Y-103861250I0J-268750D01*
G01*
X100720000Y-104398750D01*
G75*
G02*
X100451250Y-104667500I-268750J0D01*
G01*
G37*
G36*
G01*
X100451250Y-106542500D02*
X99488750Y-106542500D01*
G75*
G02*
X99220000Y-106273750I0J268750D01*
G01*
X99220000Y-105736250D01*
G75*
G02*
X99488750Y-105467500I268750J0D01*
G01*
X100451250Y-105467500D01*
G75*
G02*
X100720000Y-105736250I0J-268750D01*
G01*
X100720000Y-106273750D01*
G75*
G02*
X100451250Y-106542500I-268750J0D01*
G01*
G37*
%TD*%
%TO.C,C2*%
G36*
G01*
X145880000Y-124447500D02*
X145880000Y-125757500D01*
G75*
G02*
X145610000Y-126027500I-270000J0D01*
G01*
X144800000Y-126027500D01*
G75*
G02*
X144530000Y-125757500I0J270000D01*
G01*
X144530000Y-124447500D01*
G75*
G02*
X144800000Y-124177500I270000J0D01*
G01*
X145610000Y-124177500D01*
G75*
G02*
X145880000Y-124447500I0J-270000D01*
G01*
G37*
G36*
G01*
X148680000Y-124447500D02*
X148680000Y-125757500D01*
G75*
G02*
X148410000Y-126027500I-270000J0D01*
G01*
X147600000Y-126027500D01*
G75*
G02*
X147330000Y-125757500I0J270000D01*
G01*
X147330000Y-124447500D01*
G75*
G02*
X147600000Y-124177500I270000J0D01*
G01*
X148410000Y-124177500D01*
G75*
G02*
X148680000Y-124447500I0J-270000D01*
G01*
G37*
%TD*%
D25*
%TO.C,J5*%
X150720000Y-130172000D03*
D26*
X148020000Y-130172000D03*
D27*
X152545000Y-130172000D03*
X145795000Y-130172000D03*
D28*
X151657500Y-127597000D03*
X146682500Y-127597000D03*
D29*
X150470000Y-127512000D03*
X149820000Y-127512000D03*
X149170000Y-127512000D03*
X148520000Y-127512000D03*
X147870000Y-127512000D03*
%TD*%
D30*
%TO.C,U3*%
X102110000Y-112220000D03*
G36*
G01*
X99547500Y-114645000D02*
X98797500Y-114645000D01*
G75*
G02*
X98710000Y-114557500I0J87500D01*
G01*
X98710000Y-114382500D01*
G75*
G02*
X98797500Y-114295000I87500J0D01*
G01*
X99547500Y-114295000D01*
G75*
G02*
X99635000Y-114382500I0J-87500D01*
G01*
X99635000Y-114557500D01*
G75*
G02*
X99547500Y-114645000I-87500J0D01*
G01*
G37*
G36*
G01*
X99547500Y-114145000D02*
X98797500Y-114145000D01*
G75*
G02*
X98710000Y-114057500I0J87500D01*
G01*
X98710000Y-113882500D01*
G75*
G02*
X98797500Y-113795000I87500J0D01*
G01*
X99547500Y-113795000D01*
G75*
G02*
X99635000Y-113882500I0J-87500D01*
G01*
X99635000Y-114057500D01*
G75*
G02*
X99547500Y-114145000I-87500J0D01*
G01*
G37*
G36*
G01*
X99547500Y-113645000D02*
X98797500Y-113645000D01*
G75*
G02*
X98710000Y-113557500I0J87500D01*
G01*
X98710000Y-113382500D01*
G75*
G02*
X98797500Y-113295000I87500J0D01*
G01*
X99547500Y-113295000D01*
G75*
G02*
X99635000Y-113382500I0J-87500D01*
G01*
X99635000Y-113557500D01*
G75*
G02*
X99547500Y-113645000I-87500J0D01*
G01*
G37*
G36*
G01*
X99547500Y-113145000D02*
X98797500Y-113145000D01*
G75*
G02*
X98710000Y-113057500I0J87500D01*
G01*
X98710000Y-112882500D01*
G75*
G02*
X98797500Y-112795000I87500J0D01*
G01*
X99547500Y-112795000D01*
G75*
G02*
X99635000Y-112882500I0J-87500D01*
G01*
X99635000Y-113057500D01*
G75*
G02*
X99547500Y-113145000I-87500J0D01*
G01*
G37*
G36*
G01*
X99547500Y-112645000D02*
X98797500Y-112645000D01*
G75*
G02*
X98710000Y-112557500I0J87500D01*
G01*
X98710000Y-112382500D01*
G75*
G02*
X98797500Y-112295000I87500J0D01*
G01*
X99547500Y-112295000D01*
G75*
G02*
X99635000Y-112382500I0J-87500D01*
G01*
X99635000Y-112557500D01*
G75*
G02*
X99547500Y-112645000I-87500J0D01*
G01*
G37*
G36*
G01*
X99547500Y-112145000D02*
X98797500Y-112145000D01*
G75*
G02*
X98710000Y-112057500I0J87500D01*
G01*
X98710000Y-111882500D01*
G75*
G02*
X98797500Y-111795000I87500J0D01*
G01*
X99547500Y-111795000D01*
G75*
G02*
X99635000Y-111882500I0J-87500D01*
G01*
X99635000Y-112057500D01*
G75*
G02*
X99547500Y-112145000I-87500J0D01*
G01*
G37*
G36*
G01*
X99547500Y-111645000D02*
X98797500Y-111645000D01*
G75*
G02*
X98710000Y-111557500I0J87500D01*
G01*
X98710000Y-111382500D01*
G75*
G02*
X98797500Y-111295000I87500J0D01*
G01*
X99547500Y-111295000D01*
G75*
G02*
X99635000Y-111382500I0J-87500D01*
G01*
X99635000Y-111557500D01*
G75*
G02*
X99547500Y-111645000I-87500J0D01*
G01*
G37*
G36*
G01*
X99547500Y-111145000D02*
X98797500Y-111145000D01*
G75*
G02*
X98710000Y-111057500I0J87500D01*
G01*
X98710000Y-110882500D01*
G75*
G02*
X98797500Y-110795000I87500J0D01*
G01*
X99547500Y-110795000D01*
G75*
G02*
X99635000Y-110882500I0J-87500D01*
G01*
X99635000Y-111057500D01*
G75*
G02*
X99547500Y-111145000I-87500J0D01*
G01*
G37*
G36*
G01*
X99547500Y-110645000D02*
X98797500Y-110645000D01*
G75*
G02*
X98710000Y-110557500I0J87500D01*
G01*
X98710000Y-110382500D01*
G75*
G02*
X98797500Y-110295000I87500J0D01*
G01*
X99547500Y-110295000D01*
G75*
G02*
X99635000Y-110382500I0J-87500D01*
G01*
X99635000Y-110557500D01*
G75*
G02*
X99547500Y-110645000I-87500J0D01*
G01*
G37*
G36*
G01*
X99547500Y-110145000D02*
X98797500Y-110145000D01*
G75*
G02*
X98710000Y-110057500I0J87500D01*
G01*
X98710000Y-109882500D01*
G75*
G02*
X98797500Y-109795000I87500J0D01*
G01*
X99547500Y-109795000D01*
G75*
G02*
X99635000Y-109882500I0J-87500D01*
G01*
X99635000Y-110057500D01*
G75*
G02*
X99547500Y-110145000I-87500J0D01*
G01*
G37*
G36*
G01*
X99947500Y-109745000D02*
X99772500Y-109745000D01*
G75*
G02*
X99685000Y-109657500I0J87500D01*
G01*
X99685000Y-108907500D01*
G75*
G02*
X99772500Y-108820000I87500J0D01*
G01*
X99947500Y-108820000D01*
G75*
G02*
X100035000Y-108907500I0J-87500D01*
G01*
X100035000Y-109657500D01*
G75*
G02*
X99947500Y-109745000I-87500J0D01*
G01*
G37*
G36*
G01*
X100447500Y-109745000D02*
X100272500Y-109745000D01*
G75*
G02*
X100185000Y-109657500I0J87500D01*
G01*
X100185000Y-108907500D01*
G75*
G02*
X100272500Y-108820000I87500J0D01*
G01*
X100447500Y-108820000D01*
G75*
G02*
X100535000Y-108907500I0J-87500D01*
G01*
X100535000Y-109657500D01*
G75*
G02*
X100447500Y-109745000I-87500J0D01*
G01*
G37*
G36*
G01*
X100947500Y-109745000D02*
X100772500Y-109745000D01*
G75*
G02*
X100685000Y-109657500I0J87500D01*
G01*
X100685000Y-108907500D01*
G75*
G02*
X100772500Y-108820000I87500J0D01*
G01*
X100947500Y-108820000D01*
G75*
G02*
X101035000Y-108907500I0J-87500D01*
G01*
X101035000Y-109657500D01*
G75*
G02*
X100947500Y-109745000I-87500J0D01*
G01*
G37*
G36*
G01*
X101447500Y-109745000D02*
X101272500Y-109745000D01*
G75*
G02*
X101185000Y-109657500I0J87500D01*
G01*
X101185000Y-108907500D01*
G75*
G02*
X101272500Y-108820000I87500J0D01*
G01*
X101447500Y-108820000D01*
G75*
G02*
X101535000Y-108907500I0J-87500D01*
G01*
X101535000Y-109657500D01*
G75*
G02*
X101447500Y-109745000I-87500J0D01*
G01*
G37*
G36*
G01*
X101947500Y-109745000D02*
X101772500Y-109745000D01*
G75*
G02*
X101685000Y-109657500I0J87500D01*
G01*
X101685000Y-108907500D01*
G75*
G02*
X101772500Y-108820000I87500J0D01*
G01*
X101947500Y-108820000D01*
G75*
G02*
X102035000Y-108907500I0J-87500D01*
G01*
X102035000Y-109657500D01*
G75*
G02*
X101947500Y-109745000I-87500J0D01*
G01*
G37*
G36*
G01*
X102447500Y-109745000D02*
X102272500Y-109745000D01*
G75*
G02*
X102185000Y-109657500I0J87500D01*
G01*
X102185000Y-108907500D01*
G75*
G02*
X102272500Y-108820000I87500J0D01*
G01*
X102447500Y-108820000D01*
G75*
G02*
X102535000Y-108907500I0J-87500D01*
G01*
X102535000Y-109657500D01*
G75*
G02*
X102447500Y-109745000I-87500J0D01*
G01*
G37*
G36*
G01*
X102947500Y-109745000D02*
X102772500Y-109745000D01*
G75*
G02*
X102685000Y-109657500I0J87500D01*
G01*
X102685000Y-108907500D01*
G75*
G02*
X102772500Y-108820000I87500J0D01*
G01*
X102947500Y-108820000D01*
G75*
G02*
X103035000Y-108907500I0J-87500D01*
G01*
X103035000Y-109657500D01*
G75*
G02*
X102947500Y-109745000I-87500J0D01*
G01*
G37*
G36*
G01*
X103447500Y-109745000D02*
X103272500Y-109745000D01*
G75*
G02*
X103185000Y-109657500I0J87500D01*
G01*
X103185000Y-108907500D01*
G75*
G02*
X103272500Y-108820000I87500J0D01*
G01*
X103447500Y-108820000D01*
G75*
G02*
X103535000Y-108907500I0J-87500D01*
G01*
X103535000Y-109657500D01*
G75*
G02*
X103447500Y-109745000I-87500J0D01*
G01*
G37*
G36*
G01*
X103947500Y-109745000D02*
X103772500Y-109745000D01*
G75*
G02*
X103685000Y-109657500I0J87500D01*
G01*
X103685000Y-108907500D01*
G75*
G02*
X103772500Y-108820000I87500J0D01*
G01*
X103947500Y-108820000D01*
G75*
G02*
X104035000Y-108907500I0J-87500D01*
G01*
X104035000Y-109657500D01*
G75*
G02*
X103947500Y-109745000I-87500J0D01*
G01*
G37*
G36*
G01*
X104447500Y-109745000D02*
X104272500Y-109745000D01*
G75*
G02*
X104185000Y-109657500I0J87500D01*
G01*
X104185000Y-108907500D01*
G75*
G02*
X104272500Y-108820000I87500J0D01*
G01*
X104447500Y-108820000D01*
G75*
G02*
X104535000Y-108907500I0J-87500D01*
G01*
X104535000Y-109657500D01*
G75*
G02*
X104447500Y-109745000I-87500J0D01*
G01*
G37*
G36*
G01*
X105422500Y-110145000D02*
X104672500Y-110145000D01*
G75*
G02*
X104585000Y-110057500I0J87500D01*
G01*
X104585000Y-109882500D01*
G75*
G02*
X104672500Y-109795000I87500J0D01*
G01*
X105422500Y-109795000D01*
G75*
G02*
X105510000Y-109882500I0J-87500D01*
G01*
X105510000Y-110057500D01*
G75*
G02*
X105422500Y-110145000I-87500J0D01*
G01*
G37*
G36*
G01*
X105422500Y-110645000D02*
X104672500Y-110645000D01*
G75*
G02*
X104585000Y-110557500I0J87500D01*
G01*
X104585000Y-110382500D01*
G75*
G02*
X104672500Y-110295000I87500J0D01*
G01*
X105422500Y-110295000D01*
G75*
G02*
X105510000Y-110382500I0J-87500D01*
G01*
X105510000Y-110557500D01*
G75*
G02*
X105422500Y-110645000I-87500J0D01*
G01*
G37*
G36*
G01*
X105422500Y-111145000D02*
X104672500Y-111145000D01*
G75*
G02*
X104585000Y-111057500I0J87500D01*
G01*
X104585000Y-110882500D01*
G75*
G02*
X104672500Y-110795000I87500J0D01*
G01*
X105422500Y-110795000D01*
G75*
G02*
X105510000Y-110882500I0J-87500D01*
G01*
X105510000Y-111057500D01*
G75*
G02*
X105422500Y-111145000I-87500J0D01*
G01*
G37*
G36*
G01*
X105422500Y-111645000D02*
X104672500Y-111645000D01*
G75*
G02*
X104585000Y-111557500I0J87500D01*
G01*
X104585000Y-111382500D01*
G75*
G02*
X104672500Y-111295000I87500J0D01*
G01*
X105422500Y-111295000D01*
G75*
G02*
X105510000Y-111382500I0J-87500D01*
G01*
X105510000Y-111557500D01*
G75*
G02*
X105422500Y-111645000I-87500J0D01*
G01*
G37*
G36*
G01*
X105422500Y-112145000D02*
X104672500Y-112145000D01*
G75*
G02*
X104585000Y-112057500I0J87500D01*
G01*
X104585000Y-111882500D01*
G75*
G02*
X104672500Y-111795000I87500J0D01*
G01*
X105422500Y-111795000D01*
G75*
G02*
X105510000Y-111882500I0J-87500D01*
G01*
X105510000Y-112057500D01*
G75*
G02*
X105422500Y-112145000I-87500J0D01*
G01*
G37*
G36*
G01*
X105422500Y-112645000D02*
X104672500Y-112645000D01*
G75*
G02*
X104585000Y-112557500I0J87500D01*
G01*
X104585000Y-112382500D01*
G75*
G02*
X104672500Y-112295000I87500J0D01*
G01*
X105422500Y-112295000D01*
G75*
G02*
X105510000Y-112382500I0J-87500D01*
G01*
X105510000Y-112557500D01*
G75*
G02*
X105422500Y-112645000I-87500J0D01*
G01*
G37*
G36*
G01*
X105422500Y-113145000D02*
X104672500Y-113145000D01*
G75*
G02*
X104585000Y-113057500I0J87500D01*
G01*
X104585000Y-112882500D01*
G75*
G02*
X104672500Y-112795000I87500J0D01*
G01*
X105422500Y-112795000D01*
G75*
G02*
X105510000Y-112882500I0J-87500D01*
G01*
X105510000Y-113057500D01*
G75*
G02*
X105422500Y-113145000I-87500J0D01*
G01*
G37*
G36*
G01*
X105422500Y-113645000D02*
X104672500Y-113645000D01*
G75*
G02*
X104585000Y-113557500I0J87500D01*
G01*
X104585000Y-113382500D01*
G75*
G02*
X104672500Y-113295000I87500J0D01*
G01*
X105422500Y-113295000D01*
G75*
G02*
X105510000Y-113382500I0J-87500D01*
G01*
X105510000Y-113557500D01*
G75*
G02*
X105422500Y-113645000I-87500J0D01*
G01*
G37*
G36*
G01*
X105422500Y-114145000D02*
X104672500Y-114145000D01*
G75*
G02*
X104585000Y-114057500I0J87500D01*
G01*
X104585000Y-113882500D01*
G75*
G02*
X104672500Y-113795000I87500J0D01*
G01*
X105422500Y-113795000D01*
G75*
G02*
X105510000Y-113882500I0J-87500D01*
G01*
X105510000Y-114057500D01*
G75*
G02*
X105422500Y-114145000I-87500J0D01*
G01*
G37*
G36*
G01*
X105422500Y-114645000D02*
X104672500Y-114645000D01*
G75*
G02*
X104585000Y-114557500I0J87500D01*
G01*
X104585000Y-114382500D01*
G75*
G02*
X104672500Y-114295000I87500J0D01*
G01*
X105422500Y-114295000D01*
G75*
G02*
X105510000Y-114382500I0J-87500D01*
G01*
X105510000Y-114557500D01*
G75*
G02*
X105422500Y-114645000I-87500J0D01*
G01*
G37*
G36*
G01*
X104447500Y-115620000D02*
X104272500Y-115620000D01*
G75*
G02*
X104185000Y-115532500I0J87500D01*
G01*
X104185000Y-114782500D01*
G75*
G02*
X104272500Y-114695000I87500J0D01*
G01*
X104447500Y-114695000D01*
G75*
G02*
X104535000Y-114782500I0J-87500D01*
G01*
X104535000Y-115532500D01*
G75*
G02*
X104447500Y-115620000I-87500J0D01*
G01*
G37*
G36*
G01*
X103947500Y-115620000D02*
X103772500Y-115620000D01*
G75*
G02*
X103685000Y-115532500I0J87500D01*
G01*
X103685000Y-114782500D01*
G75*
G02*
X103772500Y-114695000I87500J0D01*
G01*
X103947500Y-114695000D01*
G75*
G02*
X104035000Y-114782500I0J-87500D01*
G01*
X104035000Y-115532500D01*
G75*
G02*
X103947500Y-115620000I-87500J0D01*
G01*
G37*
G36*
G01*
X103447500Y-115620000D02*
X103272500Y-115620000D01*
G75*
G02*
X103185000Y-115532500I0J87500D01*
G01*
X103185000Y-114782500D01*
G75*
G02*
X103272500Y-114695000I87500J0D01*
G01*
X103447500Y-114695000D01*
G75*
G02*
X103535000Y-114782500I0J-87500D01*
G01*
X103535000Y-115532500D01*
G75*
G02*
X103447500Y-115620000I-87500J0D01*
G01*
G37*
G36*
G01*
X102947500Y-115620000D02*
X102772500Y-115620000D01*
G75*
G02*
X102685000Y-115532500I0J87500D01*
G01*
X102685000Y-114782500D01*
G75*
G02*
X102772500Y-114695000I87500J0D01*
G01*
X102947500Y-114695000D01*
G75*
G02*
X103035000Y-114782500I0J-87500D01*
G01*
X103035000Y-115532500D01*
G75*
G02*
X102947500Y-115620000I-87500J0D01*
G01*
G37*
G36*
G01*
X102447500Y-115620000D02*
X102272500Y-115620000D01*
G75*
G02*
X102185000Y-115532500I0J87500D01*
G01*
X102185000Y-114782500D01*
G75*
G02*
X102272500Y-114695000I87500J0D01*
G01*
X102447500Y-114695000D01*
G75*
G02*
X102535000Y-114782500I0J-87500D01*
G01*
X102535000Y-115532500D01*
G75*
G02*
X102447500Y-115620000I-87500J0D01*
G01*
G37*
G36*
G01*
X101947500Y-115620000D02*
X101772500Y-115620000D01*
G75*
G02*
X101685000Y-115532500I0J87500D01*
G01*
X101685000Y-114782500D01*
G75*
G02*
X101772500Y-114695000I87500J0D01*
G01*
X101947500Y-114695000D01*
G75*
G02*
X102035000Y-114782500I0J-87500D01*
G01*
X102035000Y-115532500D01*
G75*
G02*
X101947500Y-115620000I-87500J0D01*
G01*
G37*
G36*
G01*
X101447500Y-115620000D02*
X101272500Y-115620000D01*
G75*
G02*
X101185000Y-115532500I0J87500D01*
G01*
X101185000Y-114782500D01*
G75*
G02*
X101272500Y-114695000I87500J0D01*
G01*
X101447500Y-114695000D01*
G75*
G02*
X101535000Y-114782500I0J-87500D01*
G01*
X101535000Y-115532500D01*
G75*
G02*
X101447500Y-115620000I-87500J0D01*
G01*
G37*
G36*
G01*
X100947500Y-115620000D02*
X100772500Y-115620000D01*
G75*
G02*
X100685000Y-115532500I0J87500D01*
G01*
X100685000Y-114782500D01*
G75*
G02*
X100772500Y-114695000I87500J0D01*
G01*
X100947500Y-114695000D01*
G75*
G02*
X101035000Y-114782500I0J-87500D01*
G01*
X101035000Y-115532500D01*
G75*
G02*
X100947500Y-115620000I-87500J0D01*
G01*
G37*
G36*
G01*
X100447500Y-115620000D02*
X100272500Y-115620000D01*
G75*
G02*
X100185000Y-115532500I0J87500D01*
G01*
X100185000Y-114782500D01*
G75*
G02*
X100272500Y-114695000I87500J0D01*
G01*
X100447500Y-114695000D01*
G75*
G02*
X100535000Y-114782500I0J-87500D01*
G01*
X100535000Y-115532500D01*
G75*
G02*
X100447500Y-115620000I-87500J0D01*
G01*
G37*
G36*
G01*
X99947500Y-115620000D02*
X99772500Y-115620000D01*
G75*
G02*
X99685000Y-115532500I0J87500D01*
G01*
X99685000Y-114782500D01*
G75*
G02*
X99772500Y-114695000I87500J0D01*
G01*
X99947500Y-114695000D01*
G75*
G02*
X100035000Y-114782500I0J-87500D01*
G01*
X100035000Y-115532500D01*
G75*
G02*
X99947500Y-115620000I-87500J0D01*
G01*
G37*
%TD*%
D31*
%TO.C,J4*%
X86170000Y-81080000D03*
%TD*%
%TO.C,J3*%
X97360000Y-78020000D03*
%TD*%
%TO.C,J2*%
X211460000Y-81710000D03*
%TD*%
%TO.C,J1*%
X200620000Y-78420000D03*
%TD*%
%TO.C,C1*%
G36*
G01*
X189001250Y-98015000D02*
X188038750Y-98015000D01*
G75*
G02*
X187770000Y-97746250I0J268750D01*
G01*
X187770000Y-97208750D01*
G75*
G02*
X188038750Y-96940000I268750J0D01*
G01*
X189001250Y-96940000D01*
G75*
G02*
X189270000Y-97208750I0J-268750D01*
G01*
X189270000Y-97746250D01*
G75*
G02*
X189001250Y-98015000I-268750J0D01*
G01*
G37*
G36*
G01*
X189001250Y-96140000D02*
X188038750Y-96140000D01*
G75*
G02*
X187770000Y-95871250I0J268750D01*
G01*
X187770000Y-95333750D01*
G75*
G02*
X188038750Y-95065000I268750J0D01*
G01*
X189001250Y-95065000D01*
G75*
G02*
X189270000Y-95333750I0J-268750D01*
G01*
X189270000Y-95871250D01*
G75*
G02*
X189001250Y-96140000I-268750J0D01*
G01*
G37*
%TD*%
D32*
%TO.C,Q1*%
X188320000Y-100870000D03*
X188320000Y-102770000D03*
X190320000Y-101820000D03*
%TD*%
%TO.C,R1*%
G36*
G01*
X192058750Y-100372500D02*
X193021250Y-100372500D01*
G75*
G02*
X193290000Y-100641250I0J-268750D01*
G01*
X193290000Y-101178750D01*
G75*
G02*
X193021250Y-101447500I-268750J0D01*
G01*
X192058750Y-101447500D01*
G75*
G02*
X191790000Y-101178750I0J268750D01*
G01*
X191790000Y-100641250D01*
G75*
G02*
X192058750Y-100372500I268750J0D01*
G01*
G37*
G36*
G01*
X192058750Y-102247500D02*
X193021250Y-102247500D01*
G75*
G02*
X193290000Y-102516250I0J-268750D01*
G01*
X193290000Y-103053750D01*
G75*
G02*
X193021250Y-103322500I-268750J0D01*
G01*
X192058750Y-103322500D01*
G75*
G02*
X191790000Y-103053750I0J268750D01*
G01*
X191790000Y-102516250D01*
G75*
G02*
X192058750Y-102247500I268750J0D01*
G01*
G37*
%TD*%
%TO.C,R2*%
G36*
G01*
X188910000Y-104588750D02*
X188910000Y-105551250D01*
G75*
G02*
X188641250Y-105820000I-268750J0D01*
G01*
X188103750Y-105820000D01*
G75*
G02*
X187835000Y-105551250I0J268750D01*
G01*
X187835000Y-104588750D01*
G75*
G02*
X188103750Y-104320000I268750J0D01*
G01*
X188641250Y-104320000D01*
G75*
G02*
X188910000Y-104588750I0J-268750D01*
G01*
G37*
G36*
G01*
X190785000Y-104588750D02*
X190785000Y-105551250D01*
G75*
G02*
X190516250Y-105820000I-268750J0D01*
G01*
X189978750Y-105820000D01*
G75*
G02*
X189710000Y-105551250I0J268750D01*
G01*
X189710000Y-104588750D01*
G75*
G02*
X189978750Y-104320000I268750J0D01*
G01*
X190516250Y-104320000D01*
G75*
G02*
X190785000Y-104588750I0J-268750D01*
G01*
G37*
%TD*%
%TO.C,U2*%
X192800000Y-96530000D03*
X190800000Y-97480000D03*
X190800000Y-95580000D03*
%TD*%
M02*
