%TF.GenerationSoftware,KiCad,Pcbnew,(5.1.6)-1*%
%TF.CreationDate,2021-04-26T08:49:06+02:00*%
%TF.ProjectId,GameboyPi,47616d65-626f-4795-9069-2e6b69636164,rev?*%
%TF.SameCoordinates,Original*%
%TF.FileFunction,Legend,Bot*%
%TF.FilePolarity,Positive*%
%FSLAX46Y46*%
G04 Gerber Fmt 4.6, Leading zero omitted, Abs format (unit mm)*
G04 Created by KiCad (PCBNEW (5.1.6)-1) date 2021-04-26 08:49:06*
%MOMM*%
%LPD*%
G01*
G04 APERTURE LIST*
%ADD10C,0.120000*%
%ADD11C,0.200000*%
%ADD12C,0.127000*%
%ADD13C,0.150000*%
%ADD14C,0.100000*%
G04 APERTURE END LIST*
D10*
%TO.C,LCD1*%
X190236000Y-72781000D02*
X172436000Y-72781000D01*
X190236000Y-127781000D02*
X190236000Y-72781000D01*
X172436000Y-127781000D02*
X190236000Y-127781000D01*
X172436000Y-127781000D02*
X112436000Y-127781000D01*
X172436000Y-72781000D02*
X172436000Y-127781000D01*
X112436000Y-72781000D02*
X172436000Y-72781000D01*
X112436000Y-127781000D02*
X112436000Y-72781000D01*
D11*
%TO.C,SW8*%
X93888007Y-89811468D02*
G75*
G03*
X93888007Y-89811468I-3205780J0D01*
G01*
D12*
X93890000Y-89780000D02*
G75*
G03*
X93890000Y-89780000I-3200000J0D01*
G01*
D11*
X93818690Y-89825054D02*
G75*
G03*
X93818690Y-89825054I-3185659J0D01*
G01*
%TO.C,SW6*%
X80398007Y-100241468D02*
G75*
G03*
X80398007Y-100241468I-3205780J0D01*
G01*
D12*
X80400000Y-100210000D02*
G75*
G03*
X80400000Y-100210000I-3200000J0D01*
G01*
D11*
X80328690Y-100255054D02*
G75*
G03*
X80328690Y-100255054I-3185659J0D01*
G01*
%TO.C,SW9*%
X107378007Y-100251468D02*
G75*
G03*
X107378007Y-100251468I-3205780J0D01*
G01*
D12*
X107380000Y-100220000D02*
G75*
G03*
X107380000Y-100220000I-3200000J0D01*
G01*
D11*
X107308690Y-100265054D02*
G75*
G03*
X107308690Y-100265054I-3185659J0D01*
G01*
%TO.C,SW7*%
X93888007Y-110801468D02*
G75*
G03*
X93888007Y-110801468I-3205780J0D01*
G01*
D12*
X93890000Y-110770000D02*
G75*
G03*
X93890000Y-110770000I-3200000J0D01*
G01*
D11*
X93818690Y-110815054D02*
G75*
G03*
X93818690Y-110815054I-3185659J0D01*
G01*
%TO.C,SW11*%
X99048007Y-127501468D02*
G75*
G03*
X99048007Y-127501468I-3205780J0D01*
G01*
D12*
X99050000Y-127470000D02*
G75*
G03*
X99050000Y-127470000I-3200000J0D01*
G01*
D11*
X98978690Y-127515054D02*
G75*
G03*
X98978690Y-127515054I-3185659J0D01*
G01*
%TO.C,SW10*%
X204898007Y-127501468D02*
G75*
G03*
X204898007Y-127501468I-3205780J0D01*
G01*
D12*
X204900000Y-127470000D02*
G75*
G03*
X204900000Y-127470000I-3200000J0D01*
G01*
D11*
X204828690Y-127515054D02*
G75*
G03*
X204828690Y-127515054I-3185659J0D01*
G01*
%TO.C,SW2*%
X209898007Y-109261468D02*
G75*
G03*
X209898007Y-109261468I-3205780J0D01*
G01*
D12*
X209900000Y-109230000D02*
G75*
G03*
X209900000Y-109230000I-3200000J0D01*
G01*
D11*
X209828690Y-109275054D02*
G75*
G03*
X209828690Y-109275054I-3185659J0D01*
G01*
%TO.C,SW4*%
X200898007Y-100261468D02*
G75*
G03*
X200898007Y-100261468I-3205780J0D01*
G01*
D12*
X200900000Y-100230000D02*
G75*
G03*
X200900000Y-100230000I-3200000J0D01*
G01*
D11*
X200828690Y-100275054D02*
G75*
G03*
X200828690Y-100275054I-3185659J0D01*
G01*
%TO.C,SW1*%
X209878007Y-91251468D02*
G75*
G03*
X209878007Y-91251468I-3205780J0D01*
G01*
D12*
X209880000Y-91220000D02*
G75*
G03*
X209880000Y-91220000I-3200000J0D01*
G01*
D11*
X209808690Y-91265054D02*
G75*
G03*
X209808690Y-91265054I-3185659J0D01*
G01*
%TO.C,SW3*%
X218888007Y-100231468D02*
G75*
G03*
X218888007Y-100231468I-3205780J0D01*
G01*
D12*
X218890000Y-100200000D02*
G75*
G03*
X218890000Y-100200000I-3200000J0D01*
G01*
D11*
X218818690Y-100245054D02*
G75*
G03*
X218818690Y-100245054I-3185659J0D01*
G01*
D10*
%TO.C,J4*%
X87670833Y-81080000D02*
G75*
G03*
X87670833Y-81080000I-1500833J0D01*
G01*
%TO.C,J3*%
X98860833Y-78020000D02*
G75*
G03*
X98860833Y-78020000I-1500833J0D01*
G01*
%TO.C,J2*%
X212960833Y-81710000D02*
G75*
G03*
X212960833Y-81710000I-1500833J0D01*
G01*
%TO.C,J1*%
X202120833Y-78420000D02*
G75*
G03*
X202120833Y-78420000I-1500833J0D01*
G01*
%TO.C,LCD1*%
D13*
X177388380Y-99114333D02*
X177388380Y-98638142D01*
X176388380Y-98638142D01*
X177293142Y-100019095D02*
X177340761Y-99971476D01*
X177388380Y-99828619D01*
X177388380Y-99733380D01*
X177340761Y-99590523D01*
X177245523Y-99495285D01*
X177150285Y-99447666D01*
X176959809Y-99400047D01*
X176816952Y-99400047D01*
X176626476Y-99447666D01*
X176531238Y-99495285D01*
X176436000Y-99590523D01*
X176388380Y-99733380D01*
X176388380Y-99828619D01*
X176436000Y-99971476D01*
X176483619Y-100019095D01*
X177388380Y-100447666D02*
X176388380Y-100447666D01*
X176388380Y-100685761D01*
X176436000Y-100828619D01*
X176531238Y-100923857D01*
X176626476Y-100971476D01*
X176816952Y-101019095D01*
X176959809Y-101019095D01*
X177150285Y-100971476D01*
X177245523Y-100923857D01*
X177340761Y-100828619D01*
X177388380Y-100685761D01*
X177388380Y-100447666D01*
X177388380Y-101971476D02*
X177388380Y-101400047D01*
X177388380Y-101685761D02*
X176388380Y-101685761D01*
X176531238Y-101590523D01*
X176626476Y-101495285D01*
X176674095Y-101400047D01*
X170638380Y-109090523D02*
X170638380Y-108519095D01*
X170638380Y-108804809D02*
X169638380Y-108804809D01*
X169781238Y-108709571D01*
X169876476Y-108614333D01*
X169924095Y-108519095D01*
X170066952Y-109661952D02*
X170019333Y-109566714D01*
X169971714Y-109519095D01*
X169876476Y-109471476D01*
X169828857Y-109471476D01*
X169733619Y-109519095D01*
X169686000Y-109566714D01*
X169638380Y-109661952D01*
X169638380Y-109852428D01*
X169686000Y-109947666D01*
X169733619Y-109995285D01*
X169828857Y-110042904D01*
X169876476Y-110042904D01*
X169971714Y-109995285D01*
X170019333Y-109947666D01*
X170066952Y-109852428D01*
X170066952Y-109661952D01*
X170114571Y-109566714D01*
X170162190Y-109519095D01*
X170257428Y-109471476D01*
X170447904Y-109471476D01*
X170543142Y-109519095D01*
X170590761Y-109566714D01*
X170638380Y-109661952D01*
X170638380Y-109852428D01*
X170590761Y-109947666D01*
X170543142Y-109995285D01*
X170447904Y-110042904D01*
X170257428Y-110042904D01*
X170162190Y-109995285D01*
X170114571Y-109947666D01*
X170066952Y-109852428D01*
X170638380Y-92316714D02*
X170638380Y-91745285D01*
X170638380Y-92031000D02*
X169638380Y-92031000D01*
X169781238Y-91935761D01*
X169876476Y-91840523D01*
X169924095Y-91745285D01*
%TO.C,SW8*%
D14*
X90766666Y-93478333D02*
X90253333Y-94248333D01*
X90253333Y-93478333D02*
X90766666Y-94248333D01*
%TO.C,SW6*%
X77203333Y-104522333D02*
X76836666Y-104522333D01*
X77276666Y-104742333D02*
X77020000Y-103972333D01*
X76763333Y-104742333D01*
%TO.C,SW9*%
X104000000Y-104385666D02*
X104000000Y-104752333D01*
X104256666Y-103982333D02*
X104000000Y-104385666D01*
X103743333Y-103982333D01*
%TO.C,SW7*%
X90455000Y-114899000D02*
X90345000Y-114935666D01*
X90308333Y-114972333D01*
X90271666Y-115045666D01*
X90271666Y-115155666D01*
X90308333Y-115229000D01*
X90345000Y-115265666D01*
X90418333Y-115302333D01*
X90711666Y-115302333D01*
X90711666Y-114532333D01*
X90455000Y-114532333D01*
X90381666Y-114569000D01*
X90345000Y-114605666D01*
X90308333Y-114679000D01*
X90308333Y-114752333D01*
X90345000Y-114825666D01*
X90381666Y-114862333D01*
X90455000Y-114899000D01*
X90711666Y-114899000D01*
%TO.C,SW11*%
X97191666Y-131901666D02*
X97081666Y-131938333D01*
X96898333Y-131938333D01*
X96825000Y-131901666D01*
X96788333Y-131865000D01*
X96751666Y-131791666D01*
X96751666Y-131718333D01*
X96788333Y-131645000D01*
X96825000Y-131608333D01*
X96898333Y-131571666D01*
X97045000Y-131535000D01*
X97118333Y-131498333D01*
X97155000Y-131461666D01*
X97191666Y-131388333D01*
X97191666Y-131315000D01*
X97155000Y-131241666D01*
X97118333Y-131205000D01*
X97045000Y-131168333D01*
X96861666Y-131168333D01*
X96751666Y-131205000D01*
X96531666Y-131168333D02*
X96091666Y-131168333D01*
X96311666Y-131938333D02*
X96311666Y-131168333D01*
X95871666Y-131718333D02*
X95505000Y-131718333D01*
X95945000Y-131938333D02*
X95688333Y-131168333D01*
X95431666Y-131938333D01*
X94735000Y-131938333D02*
X94991666Y-131571666D01*
X95175000Y-131938333D02*
X95175000Y-131168333D01*
X94881666Y-131168333D01*
X94808333Y-131205000D01*
X94771666Y-131241666D01*
X94735000Y-131315000D01*
X94735000Y-131425000D01*
X94771666Y-131498333D01*
X94808333Y-131535000D01*
X94881666Y-131571666D01*
X95175000Y-131571666D01*
X94515000Y-131168333D02*
X94075000Y-131168333D01*
X94295000Y-131938333D02*
X94295000Y-131168333D01*
%TO.C,SW10*%
X203426666Y-132001666D02*
X203316666Y-132038333D01*
X203133333Y-132038333D01*
X203060000Y-132001666D01*
X203023333Y-131965000D01*
X202986666Y-131891666D01*
X202986666Y-131818333D01*
X203023333Y-131745000D01*
X203060000Y-131708333D01*
X203133333Y-131671666D01*
X203280000Y-131635000D01*
X203353333Y-131598333D01*
X203390000Y-131561666D01*
X203426666Y-131488333D01*
X203426666Y-131415000D01*
X203390000Y-131341666D01*
X203353333Y-131305000D01*
X203280000Y-131268333D01*
X203096666Y-131268333D01*
X202986666Y-131305000D01*
X202656666Y-131635000D02*
X202400000Y-131635000D01*
X202290000Y-132038333D02*
X202656666Y-132038333D01*
X202656666Y-131268333D01*
X202290000Y-131268333D01*
X201593333Y-132038333D02*
X201960000Y-132038333D01*
X201960000Y-131268333D01*
X201336666Y-131635000D02*
X201080000Y-131635000D01*
X200970000Y-132038333D02*
X201336666Y-132038333D01*
X201336666Y-131268333D01*
X200970000Y-131268333D01*
X200200000Y-131965000D02*
X200236666Y-132001666D01*
X200346666Y-132038333D01*
X200420000Y-132038333D01*
X200530000Y-132001666D01*
X200603333Y-131928333D01*
X200640000Y-131855000D01*
X200676666Y-131708333D01*
X200676666Y-131598333D01*
X200640000Y-131451666D01*
X200603333Y-131378333D01*
X200530000Y-131305000D01*
X200420000Y-131268333D01*
X200346666Y-131268333D01*
X200236666Y-131305000D01*
X200200000Y-131341666D01*
X199980000Y-131268333D02*
X199540000Y-131268333D01*
X199760000Y-132038333D02*
X199760000Y-131268333D01*
%TO.C,SW2*%
X207968333Y-113898333D02*
X207968333Y-113128333D01*
X207785000Y-113128333D01*
X207675000Y-113165000D01*
X207601666Y-113238333D01*
X207565000Y-113311666D01*
X207528333Y-113458333D01*
X207528333Y-113568333D01*
X207565000Y-113715000D01*
X207601666Y-113788333D01*
X207675000Y-113861666D01*
X207785000Y-113898333D01*
X207968333Y-113898333D01*
X207051666Y-113128333D02*
X206905000Y-113128333D01*
X206831666Y-113165000D01*
X206758333Y-113238333D01*
X206721666Y-113385000D01*
X206721666Y-113641666D01*
X206758333Y-113788333D01*
X206831666Y-113861666D01*
X206905000Y-113898333D01*
X207051666Y-113898333D01*
X207125000Y-113861666D01*
X207198333Y-113788333D01*
X207235000Y-113641666D01*
X207235000Y-113385000D01*
X207198333Y-113238333D01*
X207125000Y-113165000D01*
X207051666Y-113128333D01*
X206465000Y-113128333D02*
X206281666Y-113898333D01*
X206135000Y-113348333D01*
X205988333Y-113898333D01*
X205805000Y-113128333D01*
X205511666Y-113898333D02*
X205511666Y-113128333D01*
X205071666Y-113898333D01*
X205071666Y-113128333D01*
%TO.C,SW4*%
X198546666Y-104762333D02*
X198803333Y-104395666D01*
X198986666Y-104762333D02*
X198986666Y-103992333D01*
X198693333Y-103992333D01*
X198620000Y-104029000D01*
X198583333Y-104065666D01*
X198546666Y-104139000D01*
X198546666Y-104249000D01*
X198583333Y-104322333D01*
X198620000Y-104359000D01*
X198693333Y-104395666D01*
X198986666Y-104395666D01*
X198216666Y-104762333D02*
X198216666Y-103992333D01*
X197446666Y-104029000D02*
X197520000Y-103992333D01*
X197630000Y-103992333D01*
X197740000Y-104029000D01*
X197813333Y-104102333D01*
X197850000Y-104175666D01*
X197886666Y-104322333D01*
X197886666Y-104432333D01*
X197850000Y-104579000D01*
X197813333Y-104652333D01*
X197740000Y-104725666D01*
X197630000Y-104762333D01*
X197556666Y-104762333D01*
X197446666Y-104725666D01*
X197410000Y-104689000D01*
X197410000Y-104432333D01*
X197556666Y-104432333D01*
X197080000Y-104762333D02*
X197080000Y-103992333D01*
X197080000Y-104359000D02*
X196640000Y-104359000D01*
X196640000Y-104762333D02*
X196640000Y-103992333D01*
X196383333Y-103992333D02*
X195943333Y-103992333D01*
X196163333Y-104762333D02*
X196163333Y-103992333D01*
%TO.C,SW1*%
X207105000Y-95118333D02*
X207105000Y-95741666D01*
X207068333Y-95815000D01*
X207031666Y-95851666D01*
X206958333Y-95888333D01*
X206811666Y-95888333D01*
X206738333Y-95851666D01*
X206701666Y-95815000D01*
X206665000Y-95741666D01*
X206665000Y-95118333D01*
X206298333Y-95888333D02*
X206298333Y-95118333D01*
X206005000Y-95118333D01*
X205931666Y-95155000D01*
X205895000Y-95191666D01*
X205858333Y-95265000D01*
X205858333Y-95375000D01*
X205895000Y-95448333D01*
X205931666Y-95485000D01*
X206005000Y-95521666D01*
X206298333Y-95521666D01*
%TO.C,SW3*%
X216243333Y-104732333D02*
X216610000Y-104732333D01*
X216610000Y-103962333D01*
X215986666Y-104329000D02*
X215730000Y-104329000D01*
X215620000Y-104732333D02*
X215986666Y-104732333D01*
X215986666Y-103962333D01*
X215620000Y-103962333D01*
X215033333Y-104329000D02*
X215290000Y-104329000D01*
X215290000Y-104732333D02*
X215290000Y-103962333D01*
X214923333Y-103962333D01*
X214740000Y-103962333D02*
X214300000Y-103962333D01*
X214520000Y-104732333D02*
X214520000Y-103962333D01*
%TO.C,J4*%
D13*
X85103333Y-84132380D02*
X85436666Y-83656190D01*
X85674761Y-84132380D02*
X85674761Y-83132380D01*
X85293809Y-83132380D01*
X85198571Y-83180000D01*
X85150952Y-83227619D01*
X85103333Y-83322857D01*
X85103333Y-83465714D01*
X85150952Y-83560952D01*
X85198571Y-83608571D01*
X85293809Y-83656190D01*
X85674761Y-83656190D01*
X84674761Y-83751428D02*
X83912857Y-83751428D01*
X82912857Y-83180000D02*
X83008095Y-83132380D01*
X83150952Y-83132380D01*
X83293809Y-83180000D01*
X83389047Y-83275238D01*
X83436666Y-83370476D01*
X83484285Y-83560952D01*
X83484285Y-83703809D01*
X83436666Y-83894285D01*
X83389047Y-83989523D01*
X83293809Y-84084761D01*
X83150952Y-84132380D01*
X83055714Y-84132380D01*
X82912857Y-84084761D01*
X82865238Y-84037142D01*
X82865238Y-83703809D01*
X83055714Y-83703809D01*
X82436666Y-84132380D02*
X82436666Y-83132380D01*
X81865238Y-84132380D01*
X81865238Y-83132380D01*
X81389047Y-84132380D02*
X81389047Y-83132380D01*
X81150952Y-83132380D01*
X81008095Y-83180000D01*
X80912857Y-83275238D01*
X80865238Y-83370476D01*
X80817619Y-83560952D01*
X80817619Y-83703809D01*
X80865238Y-83894285D01*
X80912857Y-83989523D01*
X81008095Y-84084761D01*
X81150952Y-84132380D01*
X81389047Y-84132380D01*
%TO.C,J3*%
X95550476Y-80872380D02*
X95883809Y-80396190D01*
X96121904Y-80872380D02*
X96121904Y-79872380D01*
X95740952Y-79872380D01*
X95645714Y-79920000D01*
X95598095Y-79967619D01*
X95550476Y-80062857D01*
X95550476Y-80205714D01*
X95598095Y-80300952D01*
X95645714Y-80348571D01*
X95740952Y-80396190D01*
X96121904Y-80396190D01*
%TO.C,J2*%
X214493333Y-84662380D02*
X214969523Y-84662380D01*
X214969523Y-83662380D01*
X214160000Y-84281428D02*
X213398095Y-84281428D01*
X212398095Y-83710000D02*
X212493333Y-83662380D01*
X212636190Y-83662380D01*
X212779047Y-83710000D01*
X212874285Y-83805238D01*
X212921904Y-83900476D01*
X212969523Y-84090952D01*
X212969523Y-84233809D01*
X212921904Y-84424285D01*
X212874285Y-84519523D01*
X212779047Y-84614761D01*
X212636190Y-84662380D01*
X212540952Y-84662380D01*
X212398095Y-84614761D01*
X212350476Y-84567142D01*
X212350476Y-84233809D01*
X212540952Y-84233809D01*
X211921904Y-84662380D02*
X211921904Y-83662380D01*
X211350476Y-84662380D01*
X211350476Y-83662380D01*
X210874285Y-84662380D02*
X210874285Y-83662380D01*
X210636190Y-83662380D01*
X210493333Y-83710000D01*
X210398095Y-83805238D01*
X210350476Y-83900476D01*
X210302857Y-84090952D01*
X210302857Y-84233809D01*
X210350476Y-84424285D01*
X210398095Y-84519523D01*
X210493333Y-84614761D01*
X210636190Y-84662380D01*
X210874285Y-84662380D01*
%TO.C,J1*%
X201810476Y-81172380D02*
X202286666Y-81172380D01*
X202286666Y-80172380D01*
%TD*%
M02*
