%TF.GenerationSoftware,KiCad,Pcbnew,(5.1.6)-1*%
%TF.CreationDate,2021-04-26T08:49:06+02:00*%
%TF.ProjectId,GameboyPi,47616d65-626f-4795-9069-2e6b69636164,rev?*%
%TF.SameCoordinates,Original*%
%TF.FileFunction,Paste,Top*%
%TF.FilePolarity,Positive*%
%FSLAX46Y46*%
G04 Gerber Fmt 4.6, Leading zero omitted, Abs format (unit mm)*
G04 Created by KiCad (PCBNEW (5.1.6)-1) date 2021-04-26 08:49:06*
%MOMM*%
%LPD*%
G01*
G04 APERTURE LIST*
%ADD10R,2.000000X3.000000*%
%ADD11R,2.620000X3.510000*%
%ADD12R,1.524000X1.524000*%
%ADD13C,1.524000*%
%ADD14R,5.500000X4.500000*%
%ADD15R,1.060000X0.650000*%
%ADD16R,1.220000X0.650000*%
%ADD17R,1.000000X0.800000*%
%ADD18R,0.700000X1.500000*%
%ADD19R,1.000000X1.900000*%
%ADD20R,1.800000X1.900000*%
%ADD21R,1.650000X1.300000*%
%ADD22R,1.425000X1.550000*%
%ADD23R,0.450000X1.380000*%
%ADD24C,0.100000*%
%ADD25R,0.900000X0.800000*%
G04 APERTURE END LIST*
D10*
%TO.C,J10*%
X137450000Y-71400000D03*
%TD*%
%TO.C,J9*%
X134450000Y-71400000D03*
%TD*%
%TO.C,C16*%
G36*
G01*
X172502500Y-81487500D02*
X172502500Y-82737500D01*
G75*
G02*
X172252500Y-82987500I-250000J0D01*
G01*
X171502500Y-82987500D01*
G75*
G02*
X171252500Y-82737500I0J250000D01*
G01*
X171252500Y-81487500D01*
G75*
G02*
X171502500Y-81237500I250000J0D01*
G01*
X172252500Y-81237500D01*
G75*
G02*
X172502500Y-81487500I0J-250000D01*
G01*
G37*
G36*
G01*
X175302500Y-81487500D02*
X175302500Y-82737500D01*
G75*
G02*
X175052500Y-82987500I-250000J0D01*
G01*
X174302500Y-82987500D01*
G75*
G02*
X174052500Y-82737500I0J250000D01*
G01*
X174052500Y-81487500D01*
G75*
G02*
X174302500Y-81237500I250000J0D01*
G01*
X175052500Y-81237500D01*
G75*
G02*
X175302500Y-81487500I0J-250000D01*
G01*
G37*
%TD*%
%TO.C,J6*%
X140450000Y-71400000D03*
%TD*%
D11*
%TO.C,U4*%
X79110000Y-120780000D03*
G36*
G01*
X81010000Y-121546500D02*
X81010000Y-121241500D01*
G75*
G02*
X81162500Y-121089000I152500J0D01*
G01*
X82457500Y-121089000D01*
G75*
G02*
X82610000Y-121241500I0J-152500D01*
G01*
X82610000Y-121546500D01*
G75*
G02*
X82457500Y-121699000I-152500J0D01*
G01*
X81162500Y-121699000D01*
G75*
G02*
X81010000Y-121546500I0J152500D01*
G01*
G37*
G36*
G01*
X81010000Y-122816500D02*
X81010000Y-122511500D01*
G75*
G02*
X81162500Y-122359000I152500J0D01*
G01*
X82457500Y-122359000D01*
G75*
G02*
X82610000Y-122511500I0J-152500D01*
G01*
X82610000Y-122816500D01*
G75*
G02*
X82457500Y-122969000I-152500J0D01*
G01*
X81162500Y-122969000D01*
G75*
G02*
X81010000Y-122816500I0J152500D01*
G01*
G37*
G36*
G01*
X81010000Y-119006500D02*
X81010000Y-118701500D01*
G75*
G02*
X81162500Y-118549000I152500J0D01*
G01*
X82457500Y-118549000D01*
G75*
G02*
X82610000Y-118701500I0J-152500D01*
G01*
X82610000Y-119006500D01*
G75*
G02*
X82457500Y-119159000I-152500J0D01*
G01*
X81162500Y-119159000D01*
G75*
G02*
X81010000Y-119006500I0J152500D01*
G01*
G37*
G36*
G01*
X81010000Y-120276500D02*
X81010000Y-119971500D01*
G75*
G02*
X81162500Y-119819000I152500J0D01*
G01*
X82457500Y-119819000D01*
G75*
G02*
X82610000Y-119971500I0J-152500D01*
G01*
X82610000Y-120276500D01*
G75*
G02*
X82457500Y-120429000I-152500J0D01*
G01*
X81162500Y-120429000D01*
G75*
G02*
X81010000Y-120276500I0J152500D01*
G01*
G37*
G36*
G01*
X75610000Y-122816500D02*
X75610000Y-122511500D01*
G75*
G02*
X75762500Y-122359000I152500J0D01*
G01*
X77057500Y-122359000D01*
G75*
G02*
X77210000Y-122511500I0J-152500D01*
G01*
X77210000Y-122816500D01*
G75*
G02*
X77057500Y-122969000I-152500J0D01*
G01*
X75762500Y-122969000D01*
G75*
G02*
X75610000Y-122816500I0J152500D01*
G01*
G37*
G36*
G01*
X75610000Y-121546500D02*
X75610000Y-121241500D01*
G75*
G02*
X75762500Y-121089000I152500J0D01*
G01*
X77057500Y-121089000D01*
G75*
G02*
X77210000Y-121241500I0J-152500D01*
G01*
X77210000Y-121546500D01*
G75*
G02*
X77057500Y-121699000I-152500J0D01*
G01*
X75762500Y-121699000D01*
G75*
G02*
X75610000Y-121546500I0J152500D01*
G01*
G37*
G36*
G01*
X75610000Y-120276500D02*
X75610000Y-119971500D01*
G75*
G02*
X75762500Y-119819000I152500J0D01*
G01*
X77057500Y-119819000D01*
G75*
G02*
X77210000Y-119971500I0J-152500D01*
G01*
X77210000Y-120276500D01*
G75*
G02*
X77057500Y-120429000I-152500J0D01*
G01*
X75762500Y-120429000D01*
G75*
G02*
X75610000Y-120276500I0J152500D01*
G01*
G37*
G36*
G01*
X75610000Y-119006500D02*
X75610000Y-118701500D01*
G75*
G02*
X75762500Y-118549000I152500J0D01*
G01*
X77057500Y-118549000D01*
G75*
G02*
X77210000Y-118701500I0J-152500D01*
G01*
X77210000Y-119006500D01*
G75*
G02*
X77057500Y-119159000I-152500J0D01*
G01*
X75762500Y-119159000D01*
G75*
G02*
X75610000Y-119006500I0J152500D01*
G01*
G37*
%TD*%
D10*
%TO.C,J7*%
X143450000Y-71400000D03*
%TD*%
D12*
%TO.C,U1*%
X124570001Y-91530000D03*
D13*
X124570001Y-88990000D03*
X127110001Y-91530000D03*
X127110001Y-88990000D03*
X129650001Y-91530000D03*
X129650001Y-88990000D03*
X132190001Y-91530000D03*
X132190001Y-88990000D03*
X134730001Y-91530000D03*
X134730001Y-88990000D03*
X137270001Y-91530000D03*
X137270001Y-88990000D03*
X139810001Y-91530000D03*
X139810001Y-88990000D03*
X142350001Y-91530000D03*
X142350001Y-88990000D03*
X144890001Y-91530000D03*
X144890001Y-88990000D03*
X147430001Y-91530000D03*
X147430001Y-88990000D03*
X149970001Y-91530000D03*
X149970001Y-88990000D03*
X152510001Y-91530000D03*
X152510001Y-88990000D03*
X155050001Y-91530000D03*
X155050001Y-88990000D03*
X157590001Y-91530000D03*
X157590001Y-88990000D03*
X160130001Y-91530000D03*
X160130001Y-88990000D03*
X162670001Y-91530000D03*
X162670001Y-88990000D03*
X165210001Y-91530000D03*
X165210001Y-88990000D03*
X167750001Y-91530000D03*
X167750001Y-88990000D03*
X170290001Y-91530000D03*
X170290001Y-88990000D03*
X172830001Y-91530000D03*
X172830001Y-88990000D03*
%TD*%
D14*
%TO.C,BT1*%
X82030000Y-109460000D03*
X82030000Y-90460000D03*
%TD*%
%TO.C,L1*%
G36*
G01*
X100295000Y-124185000D02*
X103225000Y-124185000D01*
G75*
G02*
X103460000Y-124420000I0J-235000D01*
G01*
X103460000Y-126300000D01*
G75*
G02*
X103225000Y-126535000I-235000J0D01*
G01*
X100295000Y-126535000D01*
G75*
G02*
X100060000Y-126300000I0J235000D01*
G01*
X100060000Y-124420000D01*
G75*
G02*
X100295000Y-124185000I235000J0D01*
G01*
G37*
G36*
G01*
X100295000Y-118135000D02*
X103225000Y-118135000D01*
G75*
G02*
X103460000Y-118370000I0J-235000D01*
G01*
X103460000Y-120250000D01*
G75*
G02*
X103225000Y-120485000I-235000J0D01*
G01*
X100295000Y-120485000D01*
G75*
G02*
X100060000Y-120250000I0J235000D01*
G01*
X100060000Y-118370000D01*
G75*
G02*
X100295000Y-118135000I235000J0D01*
G01*
G37*
%TD*%
D15*
%TO.C,M3*%
X142930000Y-126240000D03*
X142930000Y-125290000D03*
X142930000Y-127190000D03*
X140730000Y-127190000D03*
X140730000Y-126240000D03*
X140730000Y-125290000D03*
%TD*%
%TO.C,M2*%
X122147500Y-75375000D03*
X122147500Y-74425000D03*
X122147500Y-76325000D03*
X119947500Y-76325000D03*
X119947500Y-75375000D03*
X119947500Y-74425000D03*
%TD*%
D16*
%TO.C,M1*%
X80250000Y-114990000D03*
X80250000Y-115940000D03*
X80250000Y-116890000D03*
X77630000Y-116890000D03*
X77630000Y-115940000D03*
X77630000Y-114990000D03*
%TD*%
%TO.C,R5*%
G36*
G01*
X84576250Y-120722500D02*
X84063750Y-120722500D01*
G75*
G02*
X83845000Y-120503750I0J218750D01*
G01*
X83845000Y-120066250D01*
G75*
G02*
X84063750Y-119847500I218750J0D01*
G01*
X84576250Y-119847500D01*
G75*
G02*
X84795000Y-120066250I0J-218750D01*
G01*
X84795000Y-120503750D01*
G75*
G02*
X84576250Y-120722500I-218750J0D01*
G01*
G37*
G36*
G01*
X84576250Y-122297500D02*
X84063750Y-122297500D01*
G75*
G02*
X83845000Y-122078750I0J218750D01*
G01*
X83845000Y-121641250D01*
G75*
G02*
X84063750Y-121422500I218750J0D01*
G01*
X84576250Y-121422500D01*
G75*
G02*
X84795000Y-121641250I0J-218750D01*
G01*
X84795000Y-122078750D01*
G75*
G02*
X84576250Y-122297500I-218750J0D01*
G01*
G37*
%TD*%
%TO.C,C15*%
G36*
G01*
X130040000Y-76810000D02*
X130040000Y-75560000D01*
G75*
G02*
X130290000Y-75310000I250000J0D01*
G01*
X131040000Y-75310000D01*
G75*
G02*
X131290000Y-75560000I0J-250000D01*
G01*
X131290000Y-76810000D01*
G75*
G02*
X131040000Y-77060000I-250000J0D01*
G01*
X130290000Y-77060000D01*
G75*
G02*
X130040000Y-76810000I0J250000D01*
G01*
G37*
G36*
G01*
X127240000Y-76810000D02*
X127240000Y-75560000D01*
G75*
G02*
X127490000Y-75310000I250000J0D01*
G01*
X128240000Y-75310000D01*
G75*
G02*
X128490000Y-75560000I0J-250000D01*
G01*
X128490000Y-76810000D01*
G75*
G02*
X128240000Y-77060000I-250000J0D01*
G01*
X127490000Y-77060000D01*
G75*
G02*
X127240000Y-76810000I0J250000D01*
G01*
G37*
%TD*%
%TO.C,C14*%
G36*
G01*
X124733750Y-75690000D02*
X124221250Y-75690000D01*
G75*
G02*
X124002500Y-75471250I0J218750D01*
G01*
X124002500Y-75033750D01*
G75*
G02*
X124221250Y-74815000I218750J0D01*
G01*
X124733750Y-74815000D01*
G75*
G02*
X124952500Y-75033750I0J-218750D01*
G01*
X124952500Y-75471250D01*
G75*
G02*
X124733750Y-75690000I-218750J0D01*
G01*
G37*
G36*
G01*
X124733750Y-77265000D02*
X124221250Y-77265000D01*
G75*
G02*
X124002500Y-77046250I0J218750D01*
G01*
X124002500Y-76608750D01*
G75*
G02*
X124221250Y-76390000I218750J0D01*
G01*
X124733750Y-76390000D01*
G75*
G02*
X124952500Y-76608750I0J-218750D01*
G01*
X124952500Y-77046250D01*
G75*
G02*
X124733750Y-77265000I-218750J0D01*
G01*
G37*
%TD*%
%TO.C,C13*%
G36*
G01*
X109812500Y-109478750D02*
X109812500Y-109991250D01*
G75*
G02*
X109593750Y-110210000I-218750J0D01*
G01*
X109156250Y-110210000D01*
G75*
G02*
X108937500Y-109991250I0J218750D01*
G01*
X108937500Y-109478750D01*
G75*
G02*
X109156250Y-109260000I218750J0D01*
G01*
X109593750Y-109260000D01*
G75*
G02*
X109812500Y-109478750I0J-218750D01*
G01*
G37*
G36*
G01*
X111387500Y-109478750D02*
X111387500Y-109991250D01*
G75*
G02*
X111168750Y-110210000I-218750J0D01*
G01*
X110731250Y-110210000D01*
G75*
G02*
X110512500Y-109991250I0J218750D01*
G01*
X110512500Y-109478750D01*
G75*
G02*
X110731250Y-109260000I218750J0D01*
G01*
X111168750Y-109260000D01*
G75*
G02*
X111387500Y-109478750I0J-218750D01*
G01*
G37*
%TD*%
%TO.C,C12*%
G36*
G01*
X81015000Y-124031250D02*
X81015000Y-124543750D01*
G75*
G02*
X80796250Y-124762500I-218750J0D01*
G01*
X80358750Y-124762500D01*
G75*
G02*
X80140000Y-124543750I0J218750D01*
G01*
X80140000Y-124031250D01*
G75*
G02*
X80358750Y-123812500I218750J0D01*
G01*
X80796250Y-123812500D01*
G75*
G02*
X81015000Y-124031250I0J-218750D01*
G01*
G37*
G36*
G01*
X82590000Y-124031250D02*
X82590000Y-124543750D01*
G75*
G02*
X82371250Y-124762500I-218750J0D01*
G01*
X81933750Y-124762500D01*
G75*
G02*
X81715000Y-124543750I0J218750D01*
G01*
X81715000Y-124031250D01*
G75*
G02*
X81933750Y-123812500I218750J0D01*
G01*
X82371250Y-123812500D01*
G75*
G02*
X82590000Y-124031250I0J-218750D01*
G01*
G37*
%TD*%
%TO.C,R4*%
G36*
G01*
X110485000Y-111988750D02*
X110485000Y-111476250D01*
G75*
G02*
X110703750Y-111257500I218750J0D01*
G01*
X111141250Y-111257500D01*
G75*
G02*
X111360000Y-111476250I0J-218750D01*
G01*
X111360000Y-111988750D01*
G75*
G02*
X111141250Y-112207500I-218750J0D01*
G01*
X110703750Y-112207500D01*
G75*
G02*
X110485000Y-111988750I0J218750D01*
G01*
G37*
G36*
G01*
X108910000Y-111988750D02*
X108910000Y-111476250D01*
G75*
G02*
X109128750Y-111257500I218750J0D01*
G01*
X109566250Y-111257500D01*
G75*
G02*
X109785000Y-111476250I0J-218750D01*
G01*
X109785000Y-111988750D01*
G75*
G02*
X109566250Y-112207500I-218750J0D01*
G01*
X109128750Y-112207500D01*
G75*
G02*
X108910000Y-111988750I0J218750D01*
G01*
G37*
%TD*%
%TO.C,C8*%
G36*
G01*
X91380000Y-122278750D02*
X91380000Y-122791250D01*
G75*
G02*
X91161250Y-123010000I-218750J0D01*
G01*
X90723750Y-123010000D01*
G75*
G02*
X90505000Y-122791250I0J218750D01*
G01*
X90505000Y-122278750D01*
G75*
G02*
X90723750Y-122060000I218750J0D01*
G01*
X91161250Y-122060000D01*
G75*
G02*
X91380000Y-122278750I0J-218750D01*
G01*
G37*
G36*
G01*
X92955000Y-122278750D02*
X92955000Y-122791250D01*
G75*
G02*
X92736250Y-123010000I-218750J0D01*
G01*
X92298750Y-123010000D01*
G75*
G02*
X92080000Y-122791250I0J218750D01*
G01*
X92080000Y-122278750D01*
G75*
G02*
X92298750Y-122060000I218750J0D01*
G01*
X92736250Y-122060000D01*
G75*
G02*
X92955000Y-122278750I0J-218750D01*
G01*
G37*
%TD*%
%TO.C,C7*%
G36*
G01*
X91390000Y-124028750D02*
X91390000Y-124541250D01*
G75*
G02*
X91171250Y-124760000I-218750J0D01*
G01*
X90733750Y-124760000D01*
G75*
G02*
X90515000Y-124541250I0J218750D01*
G01*
X90515000Y-124028750D01*
G75*
G02*
X90733750Y-123810000I218750J0D01*
G01*
X91171250Y-123810000D01*
G75*
G02*
X91390000Y-124028750I0J-218750D01*
G01*
G37*
G36*
G01*
X92965000Y-124028750D02*
X92965000Y-124541250D01*
G75*
G02*
X92746250Y-124760000I-218750J0D01*
G01*
X92308750Y-124760000D01*
G75*
G02*
X92090000Y-124541250I0J218750D01*
G01*
X92090000Y-124028750D01*
G75*
G02*
X92308750Y-123810000I218750J0D01*
G01*
X92746250Y-123810000D01*
G75*
G02*
X92965000Y-124028750I0J-218750D01*
G01*
G37*
%TD*%
%TO.C,R3*%
G36*
G01*
X90157500Y-119810000D02*
X90157500Y-121060000D01*
G75*
G02*
X89907500Y-121310000I-250000J0D01*
G01*
X89157500Y-121310000D01*
G75*
G02*
X88907500Y-121060000I0J250000D01*
G01*
X88907500Y-119810000D01*
G75*
G02*
X89157500Y-119560000I250000J0D01*
G01*
X89907500Y-119560000D01*
G75*
G02*
X90157500Y-119810000I0J-250000D01*
G01*
G37*
G36*
G01*
X92957500Y-119810000D02*
X92957500Y-121060000D01*
G75*
G02*
X92707500Y-121310000I-250000J0D01*
G01*
X91957500Y-121310000D01*
G75*
G02*
X91707500Y-121060000I0J250000D01*
G01*
X91707500Y-119810000D01*
G75*
G02*
X91957500Y-119560000I250000J0D01*
G01*
X92707500Y-119560000D01*
G75*
G02*
X92957500Y-119810000I0J-250000D01*
G01*
G37*
%TD*%
%TO.C,C11*%
G36*
G01*
X106075000Y-117063750D02*
X106075000Y-116551250D01*
G75*
G02*
X106293750Y-116332500I218750J0D01*
G01*
X106731250Y-116332500D01*
G75*
G02*
X106950000Y-116551250I0J-218750D01*
G01*
X106950000Y-117063750D01*
G75*
G02*
X106731250Y-117282500I-218750J0D01*
G01*
X106293750Y-117282500D01*
G75*
G02*
X106075000Y-117063750I0J218750D01*
G01*
G37*
G36*
G01*
X104500000Y-117063750D02*
X104500000Y-116551250D01*
G75*
G02*
X104718750Y-116332500I218750J0D01*
G01*
X105156250Y-116332500D01*
G75*
G02*
X105375000Y-116551250I0J-218750D01*
G01*
X105375000Y-117063750D01*
G75*
G02*
X105156250Y-117282500I-218750J0D01*
G01*
X104718750Y-117282500D01*
G75*
G02*
X104500000Y-117063750I0J218750D01*
G01*
G37*
%TD*%
%TO.C,C10*%
G36*
G01*
X101775000Y-116523750D02*
X101775000Y-117036250D01*
G75*
G02*
X101556250Y-117255000I-218750J0D01*
G01*
X101118750Y-117255000D01*
G75*
G02*
X100900000Y-117036250I0J218750D01*
G01*
X100900000Y-116523750D01*
G75*
G02*
X101118750Y-116305000I218750J0D01*
G01*
X101556250Y-116305000D01*
G75*
G02*
X101775000Y-116523750I0J-218750D01*
G01*
G37*
G36*
G01*
X103350000Y-116523750D02*
X103350000Y-117036250D01*
G75*
G02*
X103131250Y-117255000I-218750J0D01*
G01*
X102693750Y-117255000D01*
G75*
G02*
X102475000Y-117036250I0J218750D01*
G01*
X102475000Y-116523750D01*
G75*
G02*
X102693750Y-116305000I218750J0D01*
G01*
X103131250Y-116305000D01*
G75*
G02*
X103350000Y-116523750I0J-218750D01*
G01*
G37*
%TD*%
%TO.C,C9*%
G36*
G01*
X107223750Y-121530000D02*
X108136250Y-121530000D01*
G75*
G02*
X108380000Y-121773750I0J-243750D01*
G01*
X108380000Y-122261250D01*
G75*
G02*
X108136250Y-122505000I-243750J0D01*
G01*
X107223750Y-122505000D01*
G75*
G02*
X106980000Y-122261250I0J243750D01*
G01*
X106980000Y-121773750D01*
G75*
G02*
X107223750Y-121530000I243750J0D01*
G01*
G37*
G36*
G01*
X107223750Y-119655000D02*
X108136250Y-119655000D01*
G75*
G02*
X108380000Y-119898750I0J-243750D01*
G01*
X108380000Y-120386250D01*
G75*
G02*
X108136250Y-120630000I-243750J0D01*
G01*
X107223750Y-120630000D01*
G75*
G02*
X106980000Y-120386250I0J243750D01*
G01*
X106980000Y-119898750D01*
G75*
G02*
X107223750Y-119655000I243750J0D01*
G01*
G37*
%TD*%
%TO.C,C6*%
G36*
G01*
X86426250Y-121740000D02*
X87338750Y-121740000D01*
G75*
G02*
X87582500Y-121983750I0J-243750D01*
G01*
X87582500Y-122471250D01*
G75*
G02*
X87338750Y-122715000I-243750J0D01*
G01*
X86426250Y-122715000D01*
G75*
G02*
X86182500Y-122471250I0J243750D01*
G01*
X86182500Y-121983750D01*
G75*
G02*
X86426250Y-121740000I243750J0D01*
G01*
G37*
G36*
G01*
X86426250Y-119865000D02*
X87338750Y-119865000D01*
G75*
G02*
X87582500Y-120108750I0J-243750D01*
G01*
X87582500Y-120596250D01*
G75*
G02*
X87338750Y-120840000I-243750J0D01*
G01*
X86426250Y-120840000D01*
G75*
G02*
X86182500Y-120596250I0J243750D01*
G01*
X86182500Y-120108750D01*
G75*
G02*
X86426250Y-119865000I243750J0D01*
G01*
G37*
%TD*%
%TO.C,D4*%
G36*
G01*
X72450000Y-88806250D02*
X72450000Y-87893750D01*
G75*
G02*
X72693750Y-87650000I243750J0D01*
G01*
X73181250Y-87650000D01*
G75*
G02*
X73425000Y-87893750I0J-243750D01*
G01*
X73425000Y-88806250D01*
G75*
G02*
X73181250Y-89050000I-243750J0D01*
G01*
X72693750Y-89050000D01*
G75*
G02*
X72450000Y-88806250I0J243750D01*
G01*
G37*
G36*
G01*
X70575000Y-88806250D02*
X70575000Y-87893750D01*
G75*
G02*
X70818750Y-87650000I243750J0D01*
G01*
X71306250Y-87650000D01*
G75*
G02*
X71550000Y-87893750I0J-243750D01*
G01*
X71550000Y-88806250D01*
G75*
G02*
X71306250Y-89050000I-243750J0D01*
G01*
X70818750Y-89050000D01*
G75*
G02*
X70575000Y-88806250I0J243750D01*
G01*
G37*
%TD*%
%TO.C,D3*%
G36*
G01*
X70842500Y-91363750D02*
X70842500Y-92276250D01*
G75*
G02*
X70598750Y-92520000I-243750J0D01*
G01*
X70111250Y-92520000D01*
G75*
G02*
X69867500Y-92276250I0J243750D01*
G01*
X69867500Y-91363750D01*
G75*
G02*
X70111250Y-91120000I243750J0D01*
G01*
X70598750Y-91120000D01*
G75*
G02*
X70842500Y-91363750I0J-243750D01*
G01*
G37*
G36*
G01*
X72717500Y-91363750D02*
X72717500Y-92276250D01*
G75*
G02*
X72473750Y-92520000I-243750J0D01*
G01*
X71986250Y-92520000D01*
G75*
G02*
X71742500Y-92276250I0J243750D01*
G01*
X71742500Y-91363750D01*
G75*
G02*
X71986250Y-91120000I243750J0D01*
G01*
X72473750Y-91120000D01*
G75*
G02*
X72717500Y-91363750I0J-243750D01*
G01*
G37*
%TD*%
%TO.C,D2*%
G36*
G01*
X71510000Y-95946250D02*
X71510000Y-95033750D01*
G75*
G02*
X71753750Y-94790000I243750J0D01*
G01*
X72241250Y-94790000D01*
G75*
G02*
X72485000Y-95033750I0J-243750D01*
G01*
X72485000Y-95946250D01*
G75*
G02*
X72241250Y-96190000I-243750J0D01*
G01*
X71753750Y-96190000D01*
G75*
G02*
X71510000Y-95946250I0J243750D01*
G01*
G37*
G36*
G01*
X69635000Y-95946250D02*
X69635000Y-95033750D01*
G75*
G02*
X69878750Y-94790000I243750J0D01*
G01*
X70366250Y-94790000D01*
G75*
G02*
X70610000Y-95033750I0J-243750D01*
G01*
X70610000Y-95946250D01*
G75*
G02*
X70366250Y-96190000I-243750J0D01*
G01*
X69878750Y-96190000D01*
G75*
G02*
X69635000Y-95946250I0J243750D01*
G01*
G37*
%TD*%
%TO.C,D1*%
G36*
G01*
X70472500Y-98433750D02*
X70472500Y-99346250D01*
G75*
G02*
X70228750Y-99590000I-243750J0D01*
G01*
X69741250Y-99590000D01*
G75*
G02*
X69497500Y-99346250I0J243750D01*
G01*
X69497500Y-98433750D01*
G75*
G02*
X69741250Y-98190000I243750J0D01*
G01*
X70228750Y-98190000D01*
G75*
G02*
X70472500Y-98433750I0J-243750D01*
G01*
G37*
G36*
G01*
X72347500Y-98433750D02*
X72347500Y-99346250D01*
G75*
G02*
X72103750Y-99590000I-243750J0D01*
G01*
X71616250Y-99590000D01*
G75*
G02*
X71372500Y-99346250I0J243750D01*
G01*
X71372500Y-98433750D01*
G75*
G02*
X71616250Y-98190000I243750J0D01*
G01*
X72103750Y-98190000D01*
G75*
G02*
X72347500Y-98433750I0J-243750D01*
G01*
G37*
%TD*%
D17*
%TO.C,SW12*%
X129165000Y-71007500D03*
X121865000Y-71007500D03*
X121865000Y-68797500D03*
X129165000Y-68797500D03*
D18*
X123265000Y-71657500D03*
X124765000Y-71657500D03*
X127765000Y-71657500D03*
%TD*%
%TO.C,C5*%
G36*
G01*
X104736250Y-104625000D02*
X103823750Y-104625000D01*
G75*
G02*
X103580000Y-104381250I0J243750D01*
G01*
X103580000Y-103893750D01*
G75*
G02*
X103823750Y-103650000I243750J0D01*
G01*
X104736250Y-103650000D01*
G75*
G02*
X104980000Y-103893750I0J-243750D01*
G01*
X104980000Y-104381250D01*
G75*
G02*
X104736250Y-104625000I-243750J0D01*
G01*
G37*
G36*
G01*
X104736250Y-106500000D02*
X103823750Y-106500000D01*
G75*
G02*
X103580000Y-106256250I0J243750D01*
G01*
X103580000Y-105768750D01*
G75*
G02*
X103823750Y-105525000I243750J0D01*
G01*
X104736250Y-105525000D01*
G75*
G02*
X104980000Y-105768750I0J-243750D01*
G01*
X104980000Y-106256250D01*
G75*
G02*
X104736250Y-106500000I-243750J0D01*
G01*
G37*
%TD*%
%TO.C,C4*%
G36*
G01*
X102596250Y-104617500D02*
X101683750Y-104617500D01*
G75*
G02*
X101440000Y-104373750I0J243750D01*
G01*
X101440000Y-103886250D01*
G75*
G02*
X101683750Y-103642500I243750J0D01*
G01*
X102596250Y-103642500D01*
G75*
G02*
X102840000Y-103886250I0J-243750D01*
G01*
X102840000Y-104373750D01*
G75*
G02*
X102596250Y-104617500I-243750J0D01*
G01*
G37*
G36*
G01*
X102596250Y-106492500D02*
X101683750Y-106492500D01*
G75*
G02*
X101440000Y-106248750I0J243750D01*
G01*
X101440000Y-105761250D01*
G75*
G02*
X101683750Y-105517500I243750J0D01*
G01*
X102596250Y-105517500D01*
G75*
G02*
X102840000Y-105761250I0J-243750D01*
G01*
X102840000Y-106248750D01*
G75*
G02*
X102596250Y-106492500I-243750J0D01*
G01*
G37*
%TD*%
%TO.C,C3*%
G36*
G01*
X100426250Y-104617500D02*
X99513750Y-104617500D01*
G75*
G02*
X99270000Y-104373750I0J243750D01*
G01*
X99270000Y-103886250D01*
G75*
G02*
X99513750Y-103642500I243750J0D01*
G01*
X100426250Y-103642500D01*
G75*
G02*
X100670000Y-103886250I0J-243750D01*
G01*
X100670000Y-104373750D01*
G75*
G02*
X100426250Y-104617500I-243750J0D01*
G01*
G37*
G36*
G01*
X100426250Y-106492500D02*
X99513750Y-106492500D01*
G75*
G02*
X99270000Y-106248750I0J243750D01*
G01*
X99270000Y-105761250D01*
G75*
G02*
X99513750Y-105517500I243750J0D01*
G01*
X100426250Y-105517500D01*
G75*
G02*
X100670000Y-105761250I0J-243750D01*
G01*
X100670000Y-106248750D01*
G75*
G02*
X100426250Y-106492500I-243750J0D01*
G01*
G37*
%TD*%
%TO.C,C2*%
G36*
G01*
X145830000Y-124477500D02*
X145830000Y-125727500D01*
G75*
G02*
X145580000Y-125977500I-250000J0D01*
G01*
X144830000Y-125977500D01*
G75*
G02*
X144580000Y-125727500I0J250000D01*
G01*
X144580000Y-124477500D01*
G75*
G02*
X144830000Y-124227500I250000J0D01*
G01*
X145580000Y-124227500D01*
G75*
G02*
X145830000Y-124477500I0J-250000D01*
G01*
G37*
G36*
G01*
X148630000Y-124477500D02*
X148630000Y-125727500D01*
G75*
G02*
X148380000Y-125977500I-250000J0D01*
G01*
X147630000Y-125977500D01*
G75*
G02*
X147380000Y-125727500I0J250000D01*
G01*
X147380000Y-124477500D01*
G75*
G02*
X147630000Y-124227500I250000J0D01*
G01*
X148380000Y-124227500D01*
G75*
G02*
X148630000Y-124477500I0J-250000D01*
G01*
G37*
%TD*%
D19*
%TO.C,J5*%
X150720000Y-130172000D03*
D20*
X148020000Y-130172000D03*
D21*
X152545000Y-130172000D03*
X145795000Y-130172000D03*
D22*
X151657500Y-127597000D03*
X146682500Y-127597000D03*
D23*
X150470000Y-127512000D03*
X149820000Y-127512000D03*
X149170000Y-127512000D03*
X148520000Y-127512000D03*
X147870000Y-127512000D03*
%TD*%
D24*
%TO.C,U3*%
G36*
X103204126Y-110408765D02*
G01*
X103210107Y-110389050D01*
X103219819Y-110370880D01*
X103232889Y-110354954D01*
X103319954Y-110267889D01*
X103335880Y-110254819D01*
X103354050Y-110245107D01*
X103373765Y-110239126D01*
X103394268Y-110237107D01*
X103900732Y-110237107D01*
X103921235Y-110239126D01*
X103940950Y-110245107D01*
X103959120Y-110254819D01*
X103975046Y-110267889D01*
X104062111Y-110354954D01*
X104075181Y-110370880D01*
X104084893Y-110389050D01*
X104090874Y-110408765D01*
X104092893Y-110429268D01*
X104092893Y-110935732D01*
X104090874Y-110956235D01*
X104084893Y-110975950D01*
X104075181Y-110994120D01*
X104062111Y-111010046D01*
X103975046Y-111097111D01*
X103959120Y-111110181D01*
X103940950Y-111119893D01*
X103921235Y-111125874D01*
X103900732Y-111127893D01*
X103394268Y-111127893D01*
X103373765Y-111125874D01*
X103354050Y-111119893D01*
X103335880Y-111110181D01*
X103319954Y-111097111D01*
X103232889Y-111010046D01*
X103219819Y-110994120D01*
X103210107Y-110975950D01*
X103204126Y-110956235D01*
X103202107Y-110935732D01*
X103202107Y-110429268D01*
X103204126Y-110408765D01*
G37*
G36*
X102179126Y-110408765D02*
G01*
X102185107Y-110389050D01*
X102194819Y-110370880D01*
X102207889Y-110354954D01*
X102294954Y-110267889D01*
X102310880Y-110254819D01*
X102329050Y-110245107D01*
X102348765Y-110239126D01*
X102369268Y-110237107D01*
X102875732Y-110237107D01*
X102896235Y-110239126D01*
X102915950Y-110245107D01*
X102934120Y-110254819D01*
X102950046Y-110267889D01*
X103037111Y-110354954D01*
X103050181Y-110370880D01*
X103059893Y-110389050D01*
X103065874Y-110408765D01*
X103067893Y-110429268D01*
X103067893Y-110935732D01*
X103065874Y-110956235D01*
X103059893Y-110975950D01*
X103050181Y-110994120D01*
X103037111Y-111010046D01*
X102950046Y-111097111D01*
X102934120Y-111110181D01*
X102915950Y-111119893D01*
X102896235Y-111125874D01*
X102875732Y-111127893D01*
X102369268Y-111127893D01*
X102348765Y-111125874D01*
X102329050Y-111119893D01*
X102310880Y-111110181D01*
X102294954Y-111097111D01*
X102207889Y-111010046D01*
X102194819Y-110994120D01*
X102185107Y-110975950D01*
X102179126Y-110956235D01*
X102177107Y-110935732D01*
X102177107Y-110429268D01*
X102179126Y-110408765D01*
G37*
G36*
X101154126Y-110408765D02*
G01*
X101160107Y-110389050D01*
X101169819Y-110370880D01*
X101182889Y-110354954D01*
X101269954Y-110267889D01*
X101285880Y-110254819D01*
X101304050Y-110245107D01*
X101323765Y-110239126D01*
X101344268Y-110237107D01*
X101850732Y-110237107D01*
X101871235Y-110239126D01*
X101890950Y-110245107D01*
X101909120Y-110254819D01*
X101925046Y-110267889D01*
X102012111Y-110354954D01*
X102025181Y-110370880D01*
X102034893Y-110389050D01*
X102040874Y-110408765D01*
X102042893Y-110429268D01*
X102042893Y-110935732D01*
X102040874Y-110956235D01*
X102034893Y-110975950D01*
X102025181Y-110994120D01*
X102012111Y-111010046D01*
X101925046Y-111097111D01*
X101909120Y-111110181D01*
X101890950Y-111119893D01*
X101871235Y-111125874D01*
X101850732Y-111127893D01*
X101344268Y-111127893D01*
X101323765Y-111125874D01*
X101304050Y-111119893D01*
X101285880Y-111110181D01*
X101269954Y-111097111D01*
X101182889Y-111010046D01*
X101169819Y-110994120D01*
X101160107Y-110975950D01*
X101154126Y-110956235D01*
X101152107Y-110935732D01*
X101152107Y-110429268D01*
X101154126Y-110408765D01*
G37*
G36*
X100129126Y-110408765D02*
G01*
X100135107Y-110389050D01*
X100144819Y-110370880D01*
X100157889Y-110354954D01*
X100244954Y-110267889D01*
X100260880Y-110254819D01*
X100279050Y-110245107D01*
X100298765Y-110239126D01*
X100319268Y-110237107D01*
X100825732Y-110237107D01*
X100846235Y-110239126D01*
X100865950Y-110245107D01*
X100884120Y-110254819D01*
X100900046Y-110267889D01*
X100987111Y-110354954D01*
X101000181Y-110370880D01*
X101009893Y-110389050D01*
X101015874Y-110408765D01*
X101017893Y-110429268D01*
X101017893Y-110935732D01*
X101015874Y-110956235D01*
X101009893Y-110975950D01*
X101000181Y-110994120D01*
X100987111Y-111010046D01*
X100900046Y-111097111D01*
X100884120Y-111110181D01*
X100865950Y-111119893D01*
X100846235Y-111125874D01*
X100825732Y-111127893D01*
X100319268Y-111127893D01*
X100298765Y-111125874D01*
X100279050Y-111119893D01*
X100260880Y-111110181D01*
X100244954Y-111097111D01*
X100157889Y-111010046D01*
X100144819Y-110994120D01*
X100135107Y-110975950D01*
X100129126Y-110956235D01*
X100127107Y-110935732D01*
X100127107Y-110429268D01*
X100129126Y-110408765D01*
G37*
G36*
X103204126Y-111433765D02*
G01*
X103210107Y-111414050D01*
X103219819Y-111395880D01*
X103232889Y-111379954D01*
X103319954Y-111292889D01*
X103335880Y-111279819D01*
X103354050Y-111270107D01*
X103373765Y-111264126D01*
X103394268Y-111262107D01*
X103900732Y-111262107D01*
X103921235Y-111264126D01*
X103940950Y-111270107D01*
X103959120Y-111279819D01*
X103975046Y-111292889D01*
X104062111Y-111379954D01*
X104075181Y-111395880D01*
X104084893Y-111414050D01*
X104090874Y-111433765D01*
X104092893Y-111454268D01*
X104092893Y-111960732D01*
X104090874Y-111981235D01*
X104084893Y-112000950D01*
X104075181Y-112019120D01*
X104062111Y-112035046D01*
X103975046Y-112122111D01*
X103959120Y-112135181D01*
X103940950Y-112144893D01*
X103921235Y-112150874D01*
X103900732Y-112152893D01*
X103394268Y-112152893D01*
X103373765Y-112150874D01*
X103354050Y-112144893D01*
X103335880Y-112135181D01*
X103319954Y-112122111D01*
X103232889Y-112035046D01*
X103219819Y-112019120D01*
X103210107Y-112000950D01*
X103204126Y-111981235D01*
X103202107Y-111960732D01*
X103202107Y-111454268D01*
X103204126Y-111433765D01*
G37*
G36*
X102179126Y-111433765D02*
G01*
X102185107Y-111414050D01*
X102194819Y-111395880D01*
X102207889Y-111379954D01*
X102294954Y-111292889D01*
X102310880Y-111279819D01*
X102329050Y-111270107D01*
X102348765Y-111264126D01*
X102369268Y-111262107D01*
X102875732Y-111262107D01*
X102896235Y-111264126D01*
X102915950Y-111270107D01*
X102934120Y-111279819D01*
X102950046Y-111292889D01*
X103037111Y-111379954D01*
X103050181Y-111395880D01*
X103059893Y-111414050D01*
X103065874Y-111433765D01*
X103067893Y-111454268D01*
X103067893Y-111960732D01*
X103065874Y-111981235D01*
X103059893Y-112000950D01*
X103050181Y-112019120D01*
X103037111Y-112035046D01*
X102950046Y-112122111D01*
X102934120Y-112135181D01*
X102915950Y-112144893D01*
X102896235Y-112150874D01*
X102875732Y-112152893D01*
X102369268Y-112152893D01*
X102348765Y-112150874D01*
X102329050Y-112144893D01*
X102310880Y-112135181D01*
X102294954Y-112122111D01*
X102207889Y-112035046D01*
X102194819Y-112019120D01*
X102185107Y-112000950D01*
X102179126Y-111981235D01*
X102177107Y-111960732D01*
X102177107Y-111454268D01*
X102179126Y-111433765D01*
G37*
G36*
X101154126Y-111433765D02*
G01*
X101160107Y-111414050D01*
X101169819Y-111395880D01*
X101182889Y-111379954D01*
X101269954Y-111292889D01*
X101285880Y-111279819D01*
X101304050Y-111270107D01*
X101323765Y-111264126D01*
X101344268Y-111262107D01*
X101850732Y-111262107D01*
X101871235Y-111264126D01*
X101890950Y-111270107D01*
X101909120Y-111279819D01*
X101925046Y-111292889D01*
X102012111Y-111379954D01*
X102025181Y-111395880D01*
X102034893Y-111414050D01*
X102040874Y-111433765D01*
X102042893Y-111454268D01*
X102042893Y-111960732D01*
X102040874Y-111981235D01*
X102034893Y-112000950D01*
X102025181Y-112019120D01*
X102012111Y-112035046D01*
X101925046Y-112122111D01*
X101909120Y-112135181D01*
X101890950Y-112144893D01*
X101871235Y-112150874D01*
X101850732Y-112152893D01*
X101344268Y-112152893D01*
X101323765Y-112150874D01*
X101304050Y-112144893D01*
X101285880Y-112135181D01*
X101269954Y-112122111D01*
X101182889Y-112035046D01*
X101169819Y-112019120D01*
X101160107Y-112000950D01*
X101154126Y-111981235D01*
X101152107Y-111960732D01*
X101152107Y-111454268D01*
X101154126Y-111433765D01*
G37*
G36*
X100129126Y-111433765D02*
G01*
X100135107Y-111414050D01*
X100144819Y-111395880D01*
X100157889Y-111379954D01*
X100244954Y-111292889D01*
X100260880Y-111279819D01*
X100279050Y-111270107D01*
X100298765Y-111264126D01*
X100319268Y-111262107D01*
X100825732Y-111262107D01*
X100846235Y-111264126D01*
X100865950Y-111270107D01*
X100884120Y-111279819D01*
X100900046Y-111292889D01*
X100987111Y-111379954D01*
X101000181Y-111395880D01*
X101009893Y-111414050D01*
X101015874Y-111433765D01*
X101017893Y-111454268D01*
X101017893Y-111960732D01*
X101015874Y-111981235D01*
X101009893Y-112000950D01*
X101000181Y-112019120D01*
X100987111Y-112035046D01*
X100900046Y-112122111D01*
X100884120Y-112135181D01*
X100865950Y-112144893D01*
X100846235Y-112150874D01*
X100825732Y-112152893D01*
X100319268Y-112152893D01*
X100298765Y-112150874D01*
X100279050Y-112144893D01*
X100260880Y-112135181D01*
X100244954Y-112122111D01*
X100157889Y-112035046D01*
X100144819Y-112019120D01*
X100135107Y-112000950D01*
X100129126Y-111981235D01*
X100127107Y-111960732D01*
X100127107Y-111454268D01*
X100129126Y-111433765D01*
G37*
G36*
X103204126Y-112458765D02*
G01*
X103210107Y-112439050D01*
X103219819Y-112420880D01*
X103232889Y-112404954D01*
X103319954Y-112317889D01*
X103335880Y-112304819D01*
X103354050Y-112295107D01*
X103373765Y-112289126D01*
X103394268Y-112287107D01*
X103900732Y-112287107D01*
X103921235Y-112289126D01*
X103940950Y-112295107D01*
X103959120Y-112304819D01*
X103975046Y-112317889D01*
X104062111Y-112404954D01*
X104075181Y-112420880D01*
X104084893Y-112439050D01*
X104090874Y-112458765D01*
X104092893Y-112479268D01*
X104092893Y-112985732D01*
X104090874Y-113006235D01*
X104084893Y-113025950D01*
X104075181Y-113044120D01*
X104062111Y-113060046D01*
X103975046Y-113147111D01*
X103959120Y-113160181D01*
X103940950Y-113169893D01*
X103921235Y-113175874D01*
X103900732Y-113177893D01*
X103394268Y-113177893D01*
X103373765Y-113175874D01*
X103354050Y-113169893D01*
X103335880Y-113160181D01*
X103319954Y-113147111D01*
X103232889Y-113060046D01*
X103219819Y-113044120D01*
X103210107Y-113025950D01*
X103204126Y-113006235D01*
X103202107Y-112985732D01*
X103202107Y-112479268D01*
X103204126Y-112458765D01*
G37*
G36*
X102179126Y-112458765D02*
G01*
X102185107Y-112439050D01*
X102194819Y-112420880D01*
X102207889Y-112404954D01*
X102294954Y-112317889D01*
X102310880Y-112304819D01*
X102329050Y-112295107D01*
X102348765Y-112289126D01*
X102369268Y-112287107D01*
X102875732Y-112287107D01*
X102896235Y-112289126D01*
X102915950Y-112295107D01*
X102934120Y-112304819D01*
X102950046Y-112317889D01*
X103037111Y-112404954D01*
X103050181Y-112420880D01*
X103059893Y-112439050D01*
X103065874Y-112458765D01*
X103067893Y-112479268D01*
X103067893Y-112985732D01*
X103065874Y-113006235D01*
X103059893Y-113025950D01*
X103050181Y-113044120D01*
X103037111Y-113060046D01*
X102950046Y-113147111D01*
X102934120Y-113160181D01*
X102915950Y-113169893D01*
X102896235Y-113175874D01*
X102875732Y-113177893D01*
X102369268Y-113177893D01*
X102348765Y-113175874D01*
X102329050Y-113169893D01*
X102310880Y-113160181D01*
X102294954Y-113147111D01*
X102207889Y-113060046D01*
X102194819Y-113044120D01*
X102185107Y-113025950D01*
X102179126Y-113006235D01*
X102177107Y-112985732D01*
X102177107Y-112479268D01*
X102179126Y-112458765D01*
G37*
G36*
X101154126Y-112458765D02*
G01*
X101160107Y-112439050D01*
X101169819Y-112420880D01*
X101182889Y-112404954D01*
X101269954Y-112317889D01*
X101285880Y-112304819D01*
X101304050Y-112295107D01*
X101323765Y-112289126D01*
X101344268Y-112287107D01*
X101850732Y-112287107D01*
X101871235Y-112289126D01*
X101890950Y-112295107D01*
X101909120Y-112304819D01*
X101925046Y-112317889D01*
X102012111Y-112404954D01*
X102025181Y-112420880D01*
X102034893Y-112439050D01*
X102040874Y-112458765D01*
X102042893Y-112479268D01*
X102042893Y-112985732D01*
X102040874Y-113006235D01*
X102034893Y-113025950D01*
X102025181Y-113044120D01*
X102012111Y-113060046D01*
X101925046Y-113147111D01*
X101909120Y-113160181D01*
X101890950Y-113169893D01*
X101871235Y-113175874D01*
X101850732Y-113177893D01*
X101344268Y-113177893D01*
X101323765Y-113175874D01*
X101304050Y-113169893D01*
X101285880Y-113160181D01*
X101269954Y-113147111D01*
X101182889Y-113060046D01*
X101169819Y-113044120D01*
X101160107Y-113025950D01*
X101154126Y-113006235D01*
X101152107Y-112985732D01*
X101152107Y-112479268D01*
X101154126Y-112458765D01*
G37*
G36*
X100129126Y-112458765D02*
G01*
X100135107Y-112439050D01*
X100144819Y-112420880D01*
X100157889Y-112404954D01*
X100244954Y-112317889D01*
X100260880Y-112304819D01*
X100279050Y-112295107D01*
X100298765Y-112289126D01*
X100319268Y-112287107D01*
X100825732Y-112287107D01*
X100846235Y-112289126D01*
X100865950Y-112295107D01*
X100884120Y-112304819D01*
X100900046Y-112317889D01*
X100987111Y-112404954D01*
X101000181Y-112420880D01*
X101009893Y-112439050D01*
X101015874Y-112458765D01*
X101017893Y-112479268D01*
X101017893Y-112985732D01*
X101015874Y-113006235D01*
X101009893Y-113025950D01*
X101000181Y-113044120D01*
X100987111Y-113060046D01*
X100900046Y-113147111D01*
X100884120Y-113160181D01*
X100865950Y-113169893D01*
X100846235Y-113175874D01*
X100825732Y-113177893D01*
X100319268Y-113177893D01*
X100298765Y-113175874D01*
X100279050Y-113169893D01*
X100260880Y-113160181D01*
X100244954Y-113147111D01*
X100157889Y-113060046D01*
X100144819Y-113044120D01*
X100135107Y-113025950D01*
X100129126Y-113006235D01*
X100127107Y-112985732D01*
X100127107Y-112479268D01*
X100129126Y-112458765D01*
G37*
G36*
X103204126Y-113483765D02*
G01*
X103210107Y-113464050D01*
X103219819Y-113445880D01*
X103232889Y-113429954D01*
X103319954Y-113342889D01*
X103335880Y-113329819D01*
X103354050Y-113320107D01*
X103373765Y-113314126D01*
X103394268Y-113312107D01*
X103900732Y-113312107D01*
X103921235Y-113314126D01*
X103940950Y-113320107D01*
X103959120Y-113329819D01*
X103975046Y-113342889D01*
X104062111Y-113429954D01*
X104075181Y-113445880D01*
X104084893Y-113464050D01*
X104090874Y-113483765D01*
X104092893Y-113504268D01*
X104092893Y-114010732D01*
X104090874Y-114031235D01*
X104084893Y-114050950D01*
X104075181Y-114069120D01*
X104062111Y-114085046D01*
X103975046Y-114172111D01*
X103959120Y-114185181D01*
X103940950Y-114194893D01*
X103921235Y-114200874D01*
X103900732Y-114202893D01*
X103394268Y-114202893D01*
X103373765Y-114200874D01*
X103354050Y-114194893D01*
X103335880Y-114185181D01*
X103319954Y-114172111D01*
X103232889Y-114085046D01*
X103219819Y-114069120D01*
X103210107Y-114050950D01*
X103204126Y-114031235D01*
X103202107Y-114010732D01*
X103202107Y-113504268D01*
X103204126Y-113483765D01*
G37*
G36*
X102179126Y-113483765D02*
G01*
X102185107Y-113464050D01*
X102194819Y-113445880D01*
X102207889Y-113429954D01*
X102294954Y-113342889D01*
X102310880Y-113329819D01*
X102329050Y-113320107D01*
X102348765Y-113314126D01*
X102369268Y-113312107D01*
X102875732Y-113312107D01*
X102896235Y-113314126D01*
X102915950Y-113320107D01*
X102934120Y-113329819D01*
X102950046Y-113342889D01*
X103037111Y-113429954D01*
X103050181Y-113445880D01*
X103059893Y-113464050D01*
X103065874Y-113483765D01*
X103067893Y-113504268D01*
X103067893Y-114010732D01*
X103065874Y-114031235D01*
X103059893Y-114050950D01*
X103050181Y-114069120D01*
X103037111Y-114085046D01*
X102950046Y-114172111D01*
X102934120Y-114185181D01*
X102915950Y-114194893D01*
X102896235Y-114200874D01*
X102875732Y-114202893D01*
X102369268Y-114202893D01*
X102348765Y-114200874D01*
X102329050Y-114194893D01*
X102310880Y-114185181D01*
X102294954Y-114172111D01*
X102207889Y-114085046D01*
X102194819Y-114069120D01*
X102185107Y-114050950D01*
X102179126Y-114031235D01*
X102177107Y-114010732D01*
X102177107Y-113504268D01*
X102179126Y-113483765D01*
G37*
G36*
X101154126Y-113483765D02*
G01*
X101160107Y-113464050D01*
X101169819Y-113445880D01*
X101182889Y-113429954D01*
X101269954Y-113342889D01*
X101285880Y-113329819D01*
X101304050Y-113320107D01*
X101323765Y-113314126D01*
X101344268Y-113312107D01*
X101850732Y-113312107D01*
X101871235Y-113314126D01*
X101890950Y-113320107D01*
X101909120Y-113329819D01*
X101925046Y-113342889D01*
X102012111Y-113429954D01*
X102025181Y-113445880D01*
X102034893Y-113464050D01*
X102040874Y-113483765D01*
X102042893Y-113504268D01*
X102042893Y-114010732D01*
X102040874Y-114031235D01*
X102034893Y-114050950D01*
X102025181Y-114069120D01*
X102012111Y-114085046D01*
X101925046Y-114172111D01*
X101909120Y-114185181D01*
X101890950Y-114194893D01*
X101871235Y-114200874D01*
X101850732Y-114202893D01*
X101344268Y-114202893D01*
X101323765Y-114200874D01*
X101304050Y-114194893D01*
X101285880Y-114185181D01*
X101269954Y-114172111D01*
X101182889Y-114085046D01*
X101169819Y-114069120D01*
X101160107Y-114050950D01*
X101154126Y-114031235D01*
X101152107Y-114010732D01*
X101152107Y-113504268D01*
X101154126Y-113483765D01*
G37*
G36*
X100129126Y-113483765D02*
G01*
X100135107Y-113464050D01*
X100144819Y-113445880D01*
X100157889Y-113429954D01*
X100244954Y-113342889D01*
X100260880Y-113329819D01*
X100279050Y-113320107D01*
X100298765Y-113314126D01*
X100319268Y-113312107D01*
X100825732Y-113312107D01*
X100846235Y-113314126D01*
X100865950Y-113320107D01*
X100884120Y-113329819D01*
X100900046Y-113342889D01*
X100987111Y-113429954D01*
X101000181Y-113445880D01*
X101009893Y-113464050D01*
X101015874Y-113483765D01*
X101017893Y-113504268D01*
X101017893Y-114010732D01*
X101015874Y-114031235D01*
X101009893Y-114050950D01*
X101000181Y-114069120D01*
X100987111Y-114085046D01*
X100900046Y-114172111D01*
X100884120Y-114185181D01*
X100865950Y-114194893D01*
X100846235Y-114200874D01*
X100825732Y-114202893D01*
X100319268Y-114202893D01*
X100298765Y-114200874D01*
X100279050Y-114194893D01*
X100260880Y-114185181D01*
X100244954Y-114172111D01*
X100157889Y-114085046D01*
X100144819Y-114069120D01*
X100135107Y-114050950D01*
X100129126Y-114031235D01*
X100127107Y-114010732D01*
X100127107Y-113504268D01*
X100129126Y-113483765D01*
G37*
G36*
G01*
X99522500Y-114595000D02*
X98822500Y-114595000D01*
G75*
G02*
X98760000Y-114532500I0J62500D01*
G01*
X98760000Y-114407500D01*
G75*
G02*
X98822500Y-114345000I62500J0D01*
G01*
X99522500Y-114345000D01*
G75*
G02*
X99585000Y-114407500I0J-62500D01*
G01*
X99585000Y-114532500D01*
G75*
G02*
X99522500Y-114595000I-62500J0D01*
G01*
G37*
G36*
G01*
X99522500Y-114095000D02*
X98822500Y-114095000D01*
G75*
G02*
X98760000Y-114032500I0J62500D01*
G01*
X98760000Y-113907500D01*
G75*
G02*
X98822500Y-113845000I62500J0D01*
G01*
X99522500Y-113845000D01*
G75*
G02*
X99585000Y-113907500I0J-62500D01*
G01*
X99585000Y-114032500D01*
G75*
G02*
X99522500Y-114095000I-62500J0D01*
G01*
G37*
G36*
G01*
X99522500Y-113595000D02*
X98822500Y-113595000D01*
G75*
G02*
X98760000Y-113532500I0J62500D01*
G01*
X98760000Y-113407500D01*
G75*
G02*
X98822500Y-113345000I62500J0D01*
G01*
X99522500Y-113345000D01*
G75*
G02*
X99585000Y-113407500I0J-62500D01*
G01*
X99585000Y-113532500D01*
G75*
G02*
X99522500Y-113595000I-62500J0D01*
G01*
G37*
G36*
G01*
X99522500Y-113095000D02*
X98822500Y-113095000D01*
G75*
G02*
X98760000Y-113032500I0J62500D01*
G01*
X98760000Y-112907500D01*
G75*
G02*
X98822500Y-112845000I62500J0D01*
G01*
X99522500Y-112845000D01*
G75*
G02*
X99585000Y-112907500I0J-62500D01*
G01*
X99585000Y-113032500D01*
G75*
G02*
X99522500Y-113095000I-62500J0D01*
G01*
G37*
G36*
G01*
X99522500Y-112595000D02*
X98822500Y-112595000D01*
G75*
G02*
X98760000Y-112532500I0J62500D01*
G01*
X98760000Y-112407500D01*
G75*
G02*
X98822500Y-112345000I62500J0D01*
G01*
X99522500Y-112345000D01*
G75*
G02*
X99585000Y-112407500I0J-62500D01*
G01*
X99585000Y-112532500D01*
G75*
G02*
X99522500Y-112595000I-62500J0D01*
G01*
G37*
G36*
G01*
X99522500Y-112095000D02*
X98822500Y-112095000D01*
G75*
G02*
X98760000Y-112032500I0J62500D01*
G01*
X98760000Y-111907500D01*
G75*
G02*
X98822500Y-111845000I62500J0D01*
G01*
X99522500Y-111845000D01*
G75*
G02*
X99585000Y-111907500I0J-62500D01*
G01*
X99585000Y-112032500D01*
G75*
G02*
X99522500Y-112095000I-62500J0D01*
G01*
G37*
G36*
G01*
X99522500Y-111595000D02*
X98822500Y-111595000D01*
G75*
G02*
X98760000Y-111532500I0J62500D01*
G01*
X98760000Y-111407500D01*
G75*
G02*
X98822500Y-111345000I62500J0D01*
G01*
X99522500Y-111345000D01*
G75*
G02*
X99585000Y-111407500I0J-62500D01*
G01*
X99585000Y-111532500D01*
G75*
G02*
X99522500Y-111595000I-62500J0D01*
G01*
G37*
G36*
G01*
X99522500Y-111095000D02*
X98822500Y-111095000D01*
G75*
G02*
X98760000Y-111032500I0J62500D01*
G01*
X98760000Y-110907500D01*
G75*
G02*
X98822500Y-110845000I62500J0D01*
G01*
X99522500Y-110845000D01*
G75*
G02*
X99585000Y-110907500I0J-62500D01*
G01*
X99585000Y-111032500D01*
G75*
G02*
X99522500Y-111095000I-62500J0D01*
G01*
G37*
G36*
G01*
X99522500Y-110595000D02*
X98822500Y-110595000D01*
G75*
G02*
X98760000Y-110532500I0J62500D01*
G01*
X98760000Y-110407500D01*
G75*
G02*
X98822500Y-110345000I62500J0D01*
G01*
X99522500Y-110345000D01*
G75*
G02*
X99585000Y-110407500I0J-62500D01*
G01*
X99585000Y-110532500D01*
G75*
G02*
X99522500Y-110595000I-62500J0D01*
G01*
G37*
G36*
G01*
X99522500Y-110095000D02*
X98822500Y-110095000D01*
G75*
G02*
X98760000Y-110032500I0J62500D01*
G01*
X98760000Y-109907500D01*
G75*
G02*
X98822500Y-109845000I62500J0D01*
G01*
X99522500Y-109845000D01*
G75*
G02*
X99585000Y-109907500I0J-62500D01*
G01*
X99585000Y-110032500D01*
G75*
G02*
X99522500Y-110095000I-62500J0D01*
G01*
G37*
G36*
G01*
X99922500Y-109695000D02*
X99797500Y-109695000D01*
G75*
G02*
X99735000Y-109632500I0J62500D01*
G01*
X99735000Y-108932500D01*
G75*
G02*
X99797500Y-108870000I62500J0D01*
G01*
X99922500Y-108870000D01*
G75*
G02*
X99985000Y-108932500I0J-62500D01*
G01*
X99985000Y-109632500D01*
G75*
G02*
X99922500Y-109695000I-62500J0D01*
G01*
G37*
G36*
G01*
X100422500Y-109695000D02*
X100297500Y-109695000D01*
G75*
G02*
X100235000Y-109632500I0J62500D01*
G01*
X100235000Y-108932500D01*
G75*
G02*
X100297500Y-108870000I62500J0D01*
G01*
X100422500Y-108870000D01*
G75*
G02*
X100485000Y-108932500I0J-62500D01*
G01*
X100485000Y-109632500D01*
G75*
G02*
X100422500Y-109695000I-62500J0D01*
G01*
G37*
G36*
G01*
X100922500Y-109695000D02*
X100797500Y-109695000D01*
G75*
G02*
X100735000Y-109632500I0J62500D01*
G01*
X100735000Y-108932500D01*
G75*
G02*
X100797500Y-108870000I62500J0D01*
G01*
X100922500Y-108870000D01*
G75*
G02*
X100985000Y-108932500I0J-62500D01*
G01*
X100985000Y-109632500D01*
G75*
G02*
X100922500Y-109695000I-62500J0D01*
G01*
G37*
G36*
G01*
X101422500Y-109695000D02*
X101297500Y-109695000D01*
G75*
G02*
X101235000Y-109632500I0J62500D01*
G01*
X101235000Y-108932500D01*
G75*
G02*
X101297500Y-108870000I62500J0D01*
G01*
X101422500Y-108870000D01*
G75*
G02*
X101485000Y-108932500I0J-62500D01*
G01*
X101485000Y-109632500D01*
G75*
G02*
X101422500Y-109695000I-62500J0D01*
G01*
G37*
G36*
G01*
X101922500Y-109695000D02*
X101797500Y-109695000D01*
G75*
G02*
X101735000Y-109632500I0J62500D01*
G01*
X101735000Y-108932500D01*
G75*
G02*
X101797500Y-108870000I62500J0D01*
G01*
X101922500Y-108870000D01*
G75*
G02*
X101985000Y-108932500I0J-62500D01*
G01*
X101985000Y-109632500D01*
G75*
G02*
X101922500Y-109695000I-62500J0D01*
G01*
G37*
G36*
G01*
X102422500Y-109695000D02*
X102297500Y-109695000D01*
G75*
G02*
X102235000Y-109632500I0J62500D01*
G01*
X102235000Y-108932500D01*
G75*
G02*
X102297500Y-108870000I62500J0D01*
G01*
X102422500Y-108870000D01*
G75*
G02*
X102485000Y-108932500I0J-62500D01*
G01*
X102485000Y-109632500D01*
G75*
G02*
X102422500Y-109695000I-62500J0D01*
G01*
G37*
G36*
G01*
X102922500Y-109695000D02*
X102797500Y-109695000D01*
G75*
G02*
X102735000Y-109632500I0J62500D01*
G01*
X102735000Y-108932500D01*
G75*
G02*
X102797500Y-108870000I62500J0D01*
G01*
X102922500Y-108870000D01*
G75*
G02*
X102985000Y-108932500I0J-62500D01*
G01*
X102985000Y-109632500D01*
G75*
G02*
X102922500Y-109695000I-62500J0D01*
G01*
G37*
G36*
G01*
X103422500Y-109695000D02*
X103297500Y-109695000D01*
G75*
G02*
X103235000Y-109632500I0J62500D01*
G01*
X103235000Y-108932500D01*
G75*
G02*
X103297500Y-108870000I62500J0D01*
G01*
X103422500Y-108870000D01*
G75*
G02*
X103485000Y-108932500I0J-62500D01*
G01*
X103485000Y-109632500D01*
G75*
G02*
X103422500Y-109695000I-62500J0D01*
G01*
G37*
G36*
G01*
X103922500Y-109695000D02*
X103797500Y-109695000D01*
G75*
G02*
X103735000Y-109632500I0J62500D01*
G01*
X103735000Y-108932500D01*
G75*
G02*
X103797500Y-108870000I62500J0D01*
G01*
X103922500Y-108870000D01*
G75*
G02*
X103985000Y-108932500I0J-62500D01*
G01*
X103985000Y-109632500D01*
G75*
G02*
X103922500Y-109695000I-62500J0D01*
G01*
G37*
G36*
G01*
X104422500Y-109695000D02*
X104297500Y-109695000D01*
G75*
G02*
X104235000Y-109632500I0J62500D01*
G01*
X104235000Y-108932500D01*
G75*
G02*
X104297500Y-108870000I62500J0D01*
G01*
X104422500Y-108870000D01*
G75*
G02*
X104485000Y-108932500I0J-62500D01*
G01*
X104485000Y-109632500D01*
G75*
G02*
X104422500Y-109695000I-62500J0D01*
G01*
G37*
G36*
G01*
X105397500Y-110095000D02*
X104697500Y-110095000D01*
G75*
G02*
X104635000Y-110032500I0J62500D01*
G01*
X104635000Y-109907500D01*
G75*
G02*
X104697500Y-109845000I62500J0D01*
G01*
X105397500Y-109845000D01*
G75*
G02*
X105460000Y-109907500I0J-62500D01*
G01*
X105460000Y-110032500D01*
G75*
G02*
X105397500Y-110095000I-62500J0D01*
G01*
G37*
G36*
G01*
X105397500Y-110595000D02*
X104697500Y-110595000D01*
G75*
G02*
X104635000Y-110532500I0J62500D01*
G01*
X104635000Y-110407500D01*
G75*
G02*
X104697500Y-110345000I62500J0D01*
G01*
X105397500Y-110345000D01*
G75*
G02*
X105460000Y-110407500I0J-62500D01*
G01*
X105460000Y-110532500D01*
G75*
G02*
X105397500Y-110595000I-62500J0D01*
G01*
G37*
G36*
G01*
X105397500Y-111095000D02*
X104697500Y-111095000D01*
G75*
G02*
X104635000Y-111032500I0J62500D01*
G01*
X104635000Y-110907500D01*
G75*
G02*
X104697500Y-110845000I62500J0D01*
G01*
X105397500Y-110845000D01*
G75*
G02*
X105460000Y-110907500I0J-62500D01*
G01*
X105460000Y-111032500D01*
G75*
G02*
X105397500Y-111095000I-62500J0D01*
G01*
G37*
G36*
G01*
X105397500Y-111595000D02*
X104697500Y-111595000D01*
G75*
G02*
X104635000Y-111532500I0J62500D01*
G01*
X104635000Y-111407500D01*
G75*
G02*
X104697500Y-111345000I62500J0D01*
G01*
X105397500Y-111345000D01*
G75*
G02*
X105460000Y-111407500I0J-62500D01*
G01*
X105460000Y-111532500D01*
G75*
G02*
X105397500Y-111595000I-62500J0D01*
G01*
G37*
G36*
G01*
X105397500Y-112095000D02*
X104697500Y-112095000D01*
G75*
G02*
X104635000Y-112032500I0J62500D01*
G01*
X104635000Y-111907500D01*
G75*
G02*
X104697500Y-111845000I62500J0D01*
G01*
X105397500Y-111845000D01*
G75*
G02*
X105460000Y-111907500I0J-62500D01*
G01*
X105460000Y-112032500D01*
G75*
G02*
X105397500Y-112095000I-62500J0D01*
G01*
G37*
G36*
G01*
X105397500Y-112595000D02*
X104697500Y-112595000D01*
G75*
G02*
X104635000Y-112532500I0J62500D01*
G01*
X104635000Y-112407500D01*
G75*
G02*
X104697500Y-112345000I62500J0D01*
G01*
X105397500Y-112345000D01*
G75*
G02*
X105460000Y-112407500I0J-62500D01*
G01*
X105460000Y-112532500D01*
G75*
G02*
X105397500Y-112595000I-62500J0D01*
G01*
G37*
G36*
G01*
X105397500Y-113095000D02*
X104697500Y-113095000D01*
G75*
G02*
X104635000Y-113032500I0J62500D01*
G01*
X104635000Y-112907500D01*
G75*
G02*
X104697500Y-112845000I62500J0D01*
G01*
X105397500Y-112845000D01*
G75*
G02*
X105460000Y-112907500I0J-62500D01*
G01*
X105460000Y-113032500D01*
G75*
G02*
X105397500Y-113095000I-62500J0D01*
G01*
G37*
G36*
G01*
X105397500Y-113595000D02*
X104697500Y-113595000D01*
G75*
G02*
X104635000Y-113532500I0J62500D01*
G01*
X104635000Y-113407500D01*
G75*
G02*
X104697500Y-113345000I62500J0D01*
G01*
X105397500Y-113345000D01*
G75*
G02*
X105460000Y-113407500I0J-62500D01*
G01*
X105460000Y-113532500D01*
G75*
G02*
X105397500Y-113595000I-62500J0D01*
G01*
G37*
G36*
G01*
X105397500Y-114095000D02*
X104697500Y-114095000D01*
G75*
G02*
X104635000Y-114032500I0J62500D01*
G01*
X104635000Y-113907500D01*
G75*
G02*
X104697500Y-113845000I62500J0D01*
G01*
X105397500Y-113845000D01*
G75*
G02*
X105460000Y-113907500I0J-62500D01*
G01*
X105460000Y-114032500D01*
G75*
G02*
X105397500Y-114095000I-62500J0D01*
G01*
G37*
G36*
G01*
X105397500Y-114595000D02*
X104697500Y-114595000D01*
G75*
G02*
X104635000Y-114532500I0J62500D01*
G01*
X104635000Y-114407500D01*
G75*
G02*
X104697500Y-114345000I62500J0D01*
G01*
X105397500Y-114345000D01*
G75*
G02*
X105460000Y-114407500I0J-62500D01*
G01*
X105460000Y-114532500D01*
G75*
G02*
X105397500Y-114595000I-62500J0D01*
G01*
G37*
G36*
G01*
X104422500Y-115570000D02*
X104297500Y-115570000D01*
G75*
G02*
X104235000Y-115507500I0J62500D01*
G01*
X104235000Y-114807500D01*
G75*
G02*
X104297500Y-114745000I62500J0D01*
G01*
X104422500Y-114745000D01*
G75*
G02*
X104485000Y-114807500I0J-62500D01*
G01*
X104485000Y-115507500D01*
G75*
G02*
X104422500Y-115570000I-62500J0D01*
G01*
G37*
G36*
G01*
X103922500Y-115570000D02*
X103797500Y-115570000D01*
G75*
G02*
X103735000Y-115507500I0J62500D01*
G01*
X103735000Y-114807500D01*
G75*
G02*
X103797500Y-114745000I62500J0D01*
G01*
X103922500Y-114745000D01*
G75*
G02*
X103985000Y-114807500I0J-62500D01*
G01*
X103985000Y-115507500D01*
G75*
G02*
X103922500Y-115570000I-62500J0D01*
G01*
G37*
G36*
G01*
X103422500Y-115570000D02*
X103297500Y-115570000D01*
G75*
G02*
X103235000Y-115507500I0J62500D01*
G01*
X103235000Y-114807500D01*
G75*
G02*
X103297500Y-114745000I62500J0D01*
G01*
X103422500Y-114745000D01*
G75*
G02*
X103485000Y-114807500I0J-62500D01*
G01*
X103485000Y-115507500D01*
G75*
G02*
X103422500Y-115570000I-62500J0D01*
G01*
G37*
G36*
G01*
X102922500Y-115570000D02*
X102797500Y-115570000D01*
G75*
G02*
X102735000Y-115507500I0J62500D01*
G01*
X102735000Y-114807500D01*
G75*
G02*
X102797500Y-114745000I62500J0D01*
G01*
X102922500Y-114745000D01*
G75*
G02*
X102985000Y-114807500I0J-62500D01*
G01*
X102985000Y-115507500D01*
G75*
G02*
X102922500Y-115570000I-62500J0D01*
G01*
G37*
G36*
G01*
X102422500Y-115570000D02*
X102297500Y-115570000D01*
G75*
G02*
X102235000Y-115507500I0J62500D01*
G01*
X102235000Y-114807500D01*
G75*
G02*
X102297500Y-114745000I62500J0D01*
G01*
X102422500Y-114745000D01*
G75*
G02*
X102485000Y-114807500I0J-62500D01*
G01*
X102485000Y-115507500D01*
G75*
G02*
X102422500Y-115570000I-62500J0D01*
G01*
G37*
G36*
G01*
X101922500Y-115570000D02*
X101797500Y-115570000D01*
G75*
G02*
X101735000Y-115507500I0J62500D01*
G01*
X101735000Y-114807500D01*
G75*
G02*
X101797500Y-114745000I62500J0D01*
G01*
X101922500Y-114745000D01*
G75*
G02*
X101985000Y-114807500I0J-62500D01*
G01*
X101985000Y-115507500D01*
G75*
G02*
X101922500Y-115570000I-62500J0D01*
G01*
G37*
G36*
G01*
X101422500Y-115570000D02*
X101297500Y-115570000D01*
G75*
G02*
X101235000Y-115507500I0J62500D01*
G01*
X101235000Y-114807500D01*
G75*
G02*
X101297500Y-114745000I62500J0D01*
G01*
X101422500Y-114745000D01*
G75*
G02*
X101485000Y-114807500I0J-62500D01*
G01*
X101485000Y-115507500D01*
G75*
G02*
X101422500Y-115570000I-62500J0D01*
G01*
G37*
G36*
G01*
X100922500Y-115570000D02*
X100797500Y-115570000D01*
G75*
G02*
X100735000Y-115507500I0J62500D01*
G01*
X100735000Y-114807500D01*
G75*
G02*
X100797500Y-114745000I62500J0D01*
G01*
X100922500Y-114745000D01*
G75*
G02*
X100985000Y-114807500I0J-62500D01*
G01*
X100985000Y-115507500D01*
G75*
G02*
X100922500Y-115570000I-62500J0D01*
G01*
G37*
G36*
G01*
X100422500Y-115570000D02*
X100297500Y-115570000D01*
G75*
G02*
X100235000Y-115507500I0J62500D01*
G01*
X100235000Y-114807500D01*
G75*
G02*
X100297500Y-114745000I62500J0D01*
G01*
X100422500Y-114745000D01*
G75*
G02*
X100485000Y-114807500I0J-62500D01*
G01*
X100485000Y-115507500D01*
G75*
G02*
X100422500Y-115570000I-62500J0D01*
G01*
G37*
G36*
G01*
X99922500Y-115570000D02*
X99797500Y-115570000D01*
G75*
G02*
X99735000Y-115507500I0J62500D01*
G01*
X99735000Y-114807500D01*
G75*
G02*
X99797500Y-114745000I62500J0D01*
G01*
X99922500Y-114745000D01*
G75*
G02*
X99985000Y-114807500I0J-62500D01*
G01*
X99985000Y-115507500D01*
G75*
G02*
X99922500Y-115570000I-62500J0D01*
G01*
G37*
%TD*%
%TO.C,C1*%
G36*
G01*
X188976250Y-97965000D02*
X188063750Y-97965000D01*
G75*
G02*
X187820000Y-97721250I0J243750D01*
G01*
X187820000Y-97233750D01*
G75*
G02*
X188063750Y-96990000I243750J0D01*
G01*
X188976250Y-96990000D01*
G75*
G02*
X189220000Y-97233750I0J-243750D01*
G01*
X189220000Y-97721250D01*
G75*
G02*
X188976250Y-97965000I-243750J0D01*
G01*
G37*
G36*
G01*
X188976250Y-96090000D02*
X188063750Y-96090000D01*
G75*
G02*
X187820000Y-95846250I0J243750D01*
G01*
X187820000Y-95358750D01*
G75*
G02*
X188063750Y-95115000I243750J0D01*
G01*
X188976250Y-95115000D01*
G75*
G02*
X189220000Y-95358750I0J-243750D01*
G01*
X189220000Y-95846250D01*
G75*
G02*
X188976250Y-96090000I-243750J0D01*
G01*
G37*
%TD*%
D25*
%TO.C,Q1*%
X188320000Y-100870000D03*
X188320000Y-102770000D03*
X190320000Y-101820000D03*
%TD*%
%TO.C,R1*%
G36*
G01*
X192083750Y-100422500D02*
X192996250Y-100422500D01*
G75*
G02*
X193240000Y-100666250I0J-243750D01*
G01*
X193240000Y-101153750D01*
G75*
G02*
X192996250Y-101397500I-243750J0D01*
G01*
X192083750Y-101397500D01*
G75*
G02*
X191840000Y-101153750I0J243750D01*
G01*
X191840000Y-100666250D01*
G75*
G02*
X192083750Y-100422500I243750J0D01*
G01*
G37*
G36*
G01*
X192083750Y-102297500D02*
X192996250Y-102297500D01*
G75*
G02*
X193240000Y-102541250I0J-243750D01*
G01*
X193240000Y-103028750D01*
G75*
G02*
X192996250Y-103272500I-243750J0D01*
G01*
X192083750Y-103272500D01*
G75*
G02*
X191840000Y-103028750I0J243750D01*
G01*
X191840000Y-102541250D01*
G75*
G02*
X192083750Y-102297500I243750J0D01*
G01*
G37*
%TD*%
%TO.C,R2*%
G36*
G01*
X188860000Y-104613750D02*
X188860000Y-105526250D01*
G75*
G02*
X188616250Y-105770000I-243750J0D01*
G01*
X188128750Y-105770000D01*
G75*
G02*
X187885000Y-105526250I0J243750D01*
G01*
X187885000Y-104613750D01*
G75*
G02*
X188128750Y-104370000I243750J0D01*
G01*
X188616250Y-104370000D01*
G75*
G02*
X188860000Y-104613750I0J-243750D01*
G01*
G37*
G36*
G01*
X190735000Y-104613750D02*
X190735000Y-105526250D01*
G75*
G02*
X190491250Y-105770000I-243750J0D01*
G01*
X190003750Y-105770000D01*
G75*
G02*
X189760000Y-105526250I0J243750D01*
G01*
X189760000Y-104613750D01*
G75*
G02*
X190003750Y-104370000I243750J0D01*
G01*
X190491250Y-104370000D01*
G75*
G02*
X190735000Y-104613750I0J-243750D01*
G01*
G37*
%TD*%
%TO.C,U2*%
X192800000Y-96530000D03*
X190800000Y-97480000D03*
X190800000Y-95580000D03*
%TD*%
M02*
