%TF.GenerationSoftware,KiCad,Pcbnew,(5.1.6)-1*%
%TF.CreationDate,2021-04-26T08:49:06+02:00*%
%TF.ProjectId,GameboyPi,47616d65-626f-4795-9069-2e6b69636164,rev?*%
%TF.SameCoordinates,Original*%
%TF.FileFunction,Soldermask,Bot*%
%TF.FilePolarity,Negative*%
%FSLAX46Y46*%
G04 Gerber Fmt 4.6, Leading zero omitted, Abs format (unit mm)*
G04 Created by KiCad (PCBNEW (5.1.6)-1) date 2021-04-26 08:49:06*
%MOMM*%
%LPD*%
G01*
G04 APERTURE LIST*
%ADD10C,3.100000*%
%ADD11R,4.100000X0.600000*%
%ADD12C,1.700000*%
%ADD13R,1.700000X1.600000*%
%ADD14C,3.100000*%
%ADD15C,0.600000*%
%ADD16C,1.600000*%
%ADD17C,1.000000*%
%ADD18C,2.500000*%
G04 APERTURE END LIST*
D10*
%TO.C,SW8*%
X92240000Y-89780000D02*
G75*
G03*
X92240000Y-89780000I-1550000J0D01*
G01*
%TO.C,SW6*%
X78750000Y-100210000D02*
G75*
G03*
X78750000Y-100210000I-1550000J0D01*
G01*
%TO.C,SW9*%
X105730000Y-100220000D02*
G75*
G03*
X105730000Y-100220000I-1550000J0D01*
G01*
%TO.C,SW7*%
X92240000Y-110770000D02*
G75*
G03*
X92240000Y-110770000I-1550000J0D01*
G01*
%TO.C,SW11*%
X97400000Y-127470000D02*
G75*
G03*
X97400000Y-127470000I-1550000J0D01*
G01*
%TO.C,SW10*%
X203250000Y-127470000D02*
G75*
G03*
X203250000Y-127470000I-1550000J0D01*
G01*
%TO.C,SW2*%
X208250000Y-109230000D02*
G75*
G03*
X208250000Y-109230000I-1550000J0D01*
G01*
%TO.C,SW4*%
X199250000Y-100230000D02*
G75*
G03*
X199250000Y-100230000I-1550000J0D01*
G01*
%TO.C,SW1*%
X208230000Y-91220000D02*
G75*
G03*
X208230000Y-91220000I-1550000J0D01*
G01*
%TO.C,SW3*%
X217240000Y-100200000D02*
G75*
G03*
X217240000Y-100200000I-1550000J0D01*
G01*
%TD*%
D11*
%TO.C,LCD1*%
X172436000Y-107081000D03*
X172436000Y-106281000D03*
X172436000Y-105481000D03*
X172436000Y-104681000D03*
X172436000Y-103881000D03*
X172436000Y-103081000D03*
X172436000Y-102281000D03*
X172436000Y-101481000D03*
X172436000Y-100681000D03*
X172436000Y-99881000D03*
X172436000Y-99081000D03*
X172436000Y-98281000D03*
X172436000Y-97481000D03*
X172436000Y-96681000D03*
X172436000Y-95881000D03*
X172436000Y-95081000D03*
X172436000Y-94281000D03*
X172436000Y-93481000D03*
%TD*%
D12*
%TO.C,J8*%
X164800000Y-77741000D03*
X167300000Y-77741000D03*
X169300000Y-77741000D03*
D13*
X171800000Y-77741000D03*
D14*
X161730000Y-75031000D03*
X174870000Y-75031000D03*
%TD*%
D15*
%TO.C,U4*%
X79860000Y-119530000D03*
X79860000Y-120780000D03*
X79860000Y-122030000D03*
X78360000Y-122030000D03*
X78360000Y-120780000D03*
X78360000Y-119530000D03*
%TD*%
D16*
%TO.C,U1*%
X156400000Y-114760000D03*
X158300000Y-114760000D03*
%TD*%
D17*
%TO.C,SW12*%
X124015000Y-69897500D03*
X127015000Y-69897500D03*
%TD*%
D18*
%TO.C,J4*%
X86170000Y-81080000D03*
%TD*%
%TO.C,J3*%
X97360000Y-78020000D03*
%TD*%
%TO.C,J2*%
X211460000Y-81710000D03*
%TD*%
%TO.C,J1*%
X200620000Y-78420000D03*
%TD*%
M02*
