%TF.GenerationSoftware,KiCad,Pcbnew,(5.1.6)-1*%
%TF.CreationDate,2021-04-26T08:49:06+02:00*%
%TF.ProjectId,GameboyPi,47616d65-626f-4795-9069-2e6b69636164,rev?*%
%TF.SameCoordinates,Original*%
%TF.FileFunction,Profile,NP*%
%FSLAX46Y46*%
G04 Gerber Fmt 4.6, Leading zero omitted, Abs format (unit mm)*
G04 Created by KiCad (PCBNEW (5.1.6)-1) date 2021-04-26 08:49:06*
%MOMM*%
%LPD*%
G01*
G04 APERTURE LIST*
%TA.AperFunction,Profile*%
%ADD10C,0.200000*%
%TD*%
%TA.AperFunction,Profile*%
%ADD11C,0.050000*%
%TD*%
G04 APERTURE END LIST*
D10*
X154770000Y-129731305D02*
X183011426Y-129731305D01*
X145060000Y-131442500D02*
X143710000Y-129731305D01*
X153247500Y-131440000D02*
X145060000Y-131442500D01*
X154770000Y-129731305D02*
X153247500Y-131440000D01*
X146486275Y-68238859D02*
X145000000Y-68240000D01*
X133000000Y-69840000D02*
X133000000Y-68230000D01*
X145000000Y-69840000D02*
X133000000Y-69840000D01*
X145000000Y-68240000D02*
X145000000Y-69840000D01*
D11*
X104839187Y-79647842D02*
G75*
G03*
X104839187Y-79647842I-1666666J0D01*
G01*
X100672521Y-79647842D02*
X105672521Y-79647842D01*
X103172521Y-77147842D02*
X103172521Y-82147842D01*
D10*
X79941212Y-80067516D02*
X101518697Y-73880271D01*
X220550981Y-83904710D02*
G75*
G03*
X220550981Y-83904710I-1200000J0D01*
G01*
X196400028Y-79647842D02*
G75*
G03*
X196400028Y-79647842I-2200000J0D01*
G01*
X68686274Y-94731307D02*
X68686274Y-108017306D01*
X190559891Y-132384374D02*
X189397730Y-134272762D01*
X217434177Y-80068330D02*
X195853853Y-73880271D01*
X79221568Y-83904710D02*
G75*
G03*
X79221568Y-83904710I-1200000J0D01*
G01*
X150886275Y-69231306D02*
X150886275Y-68238859D01*
X70202400Y-112431214D02*
X68776051Y-112431304D01*
X227186274Y-112431305D02*
X228596496Y-112431306D01*
X105372521Y-79647842D02*
G75*
G03*
X105372521Y-79647842I-2200000J0D01*
G01*
X70202450Y-108031396D02*
X68686274Y-108017306D01*
X193562341Y-71350652D02*
X186601504Y-71350651D01*
X114361126Y-129731305D02*
X143710000Y-129731305D01*
X227166292Y-108031396D02*
X228686274Y-108017590D01*
X186851420Y-130017506D02*
X185596938Y-131913860D01*
X106753670Y-132282516D02*
X107866252Y-134327948D01*
X110627794Y-130196655D02*
X111608471Y-132036894D01*
X119686274Y-70481307D02*
X119686274Y-68238859D01*
X177686276Y-70481307D02*
X177686275Y-68238859D01*
X150886275Y-69231307D02*
G75*
G02*
X146486275Y-69231307I-2200000J0D01*
G01*
X106753670Y-132282517D02*
G75*
G02*
X110627794Y-130196655I1932604J1051211D01*
G01*
X227186274Y-112431305D02*
G75*
G02*
X227166292Y-108031396I0J2200000D01*
G01*
X217434177Y-80068330D02*
X217930324Y-78338059D01*
X150886275Y-68238859D02*
X177686275Y-68238859D01*
X185596938Y-131913861D02*
G75*
G02*
X183011426Y-129731305I16089337J21682556D01*
G01*
X228686274Y-94731307D02*
X228686274Y-108017590D01*
X217930324Y-78338059D02*
X224446590Y-80206568D01*
X119686274Y-70481308D02*
G75*
G02*
X110771046Y-71350652I-4500000J1D01*
G01*
X133000000Y-68230000D02*
X119686274Y-68238859D01*
X70202450Y-108031396D02*
G75*
G02*
X70202400Y-112431214I19892J-2199909D01*
G01*
X103810209Y-71350652D02*
X101022550Y-72150000D01*
X146486275Y-69231306D02*
X146486275Y-68238859D01*
X68686274Y-94731306D02*
G75*
G02*
X72946183Y-80174925I27000000J-1D01*
G01*
X79439225Y-78315764D02*
X72946183Y-80174925D01*
X186851419Y-130017506D02*
G75*
G02*
X190559891Y-132384374I1834856J-1213799D01*
G01*
X228596496Y-112431306D02*
G75*
G02*
X189397730Y-134272762I-26910221J2200001D01*
G01*
X186601504Y-71350652D02*
G75*
G02*
X177686276Y-70481307I-4415228J869345D01*
G01*
X103810209Y-71350652D02*
X110771046Y-71350652D01*
X114361126Y-129731304D02*
G75*
G02*
X111608471Y-132036894I-18674852J19499999D01*
G01*
X101022550Y-72150000D02*
X101518697Y-73880271D01*
X107866252Y-134327949D02*
G75*
G02*
X68776051Y-112431304I-12179978J24096644D01*
G01*
X195853853Y-73880271D02*
X196350000Y-72150000D01*
X79941212Y-80067516D02*
X79439225Y-78315764D01*
X224446590Y-80206569D02*
G75*
G02*
X228686274Y-94731307I-22760315J-14524738D01*
G01*
X196350000Y-72150000D02*
X193562341Y-71350652D01*
M02*
